<?xml version="1.0" standalone="no"?>
<!DOCTYPE svg PUBLIC "-//W3C//DTD SVG 20010904//EN"
 "http://www.w3.org/TR/2001/REC-SVG-20010904/DTD/svg10.dtd">
<svg version="1.0" xmlns="http://www.w3.org/2000/svg"
 width="1200.000000pt" height="1200.000000pt" viewBox="0 0 1200.000000 1200.000000"
 preserveAspectRatio="xMidYMid meet">
<metadata>
Created by potrace 1.14, written by Peter Selinger 2001-2017
</metadata>
<g transform="translate(0.000000,1200.000000) scale(0.100000,-0.100000)"
fill="#000000" stroke="none">
<path d="M0 6000 l0 -6000 6000 0 6000 0 0 6000 0 6000 -6000 0 -6000 0 0
-6000z m6405 3954 c187 -35 412 -129 440 -185 21 -39 12 -82 -22 -109 -38 -30
-71 -25 -175 25 -149 72 -246 96 -423 102 -261 9 -448 -44 -664 -189 -134 -91
-303 -287 -354 -409 l-14 -35 51 4 c45 4 56 1 84 -23 26 -21 32 -34 32 -65 0
-63 -22 -80 -129 -96 -51 -7 -113 -23 -139 -34 -200 -89 -316 -328 -256 -531
34 -114 75 -170 213 -290 l41 -36 0 -242 c0 -295 5 -311 95 -311 18 0 43 9 56
19 22 18 24 28 29 150 5 126 6 132 32 158 37 37 89 37 126 0 26 -27 27 -31 31
-157 3 -125 4 -131 28 -150 37 -29 93 -27 124 6 22 24 24 34 27 152 3 111 6
130 24 149 26 28 64 37 100 22 47 -19 58 -54 58 -184 0 -110 1 -117 25 -140
16 -17 35 -25 59 -25 81 0 96 28 96 184 0 107 2 117 24 143 19 22 32 28 66 28
34 0 47 -6 66 -28 22 -26 24 -36 24 -143 0 -119 12 -165 45 -178 32 -12 83 -6
106 13 24 19 24 21 29 282 l5 262 34 26 c93 70 153 137 188 209 32 64 37 85
41 164 9 192 -79 352 -240 434 -53 27 -155 53 -208 54 -83 1 -119 92 -61 151
25 24 38 29 78 29 81 0 184 -27 272 -72 279 -140 414 -474 312 -771 -34 -97
-80 -168 -163 -249 l-78 -77 0 -150 c0 -82 4 -152 8 -155 12 -7 181 76 251
123 269 183 449 503 468 831 16 280 -70 539 -255 769 -53 66 -62 94 -40 134
17 34 39 46 80 47 29 0 43 -7 72 -38 162 -171 279 -423 316 -677 18 -126 10
-342 -16 -427 -5 -16 22 -17 378 -20 370 -3 385 -4 431 -25 70 -33 149 -113
183 -186 l29 -62 3 -1238 2 -1238 -29 -30 c-40 -39 -82 -39 -122 0 -28 29 -29
32 -29 135 l0 106 -105 0 c-142 0 -140 -2 -241 253 -73 185 -79 197 -103 197
-19 0 -30 -8 -39 -29 -19 -44 -80 -101 -131 -124 -65 -29 -160 -28 -224 3 -91
43 -157 149 -157 250 0 93 69 198 157 241 67 32 171 32 231 1 51 -27 120 -96
128 -127 5 -21 13 -23 80 -27 63 -3 78 -7 98 -28 14 -14 58 -110 104 -225 l80
-200 61 -3 61 -3 0 636 0 635 -285 0 c-221 0 -285 -3 -285 -12 -1 -29 -69
-105 -121 -133 -46 -25 -65 -29 -124 -29 -84 1 -130 19 -190 75 -111 103 -111
285 0 388 60 55 106 74 190 75 64 1 76 -2 128 -33 52 -32 117 -104 117 -130 0
-8 87 -11 285 -11 l286 0 -3 298 -3 299 -28 42 c-53 80 -58 81 -489 81 l-376
0 -45 -92 c-25 -51 -68 -127 -96 -170 -61 -91 -199 -234 -296 -306 -87 -65
-281 -163 -367 -187 -47 -12 -69 -24 -82 -43 -78 -115 -247 -142 -369 -59 -25
17 -30 18 -45 4 -71 -63 -222 -69 -306 -12 l-35 24 -57 -31 c-49 -27 -68 -31
-129 -31 -63 0 -80 4 -128 31 l-56 32 -36 -24 c-105 -71 -257 -49 -344 51 -64
72 -71 106 -71 352 l0 216 -37 25 c-50 34 -127 129 -164 202 -92 182 -91 414
3 591 39 73 140 183 208 227 41 26 52 40 66 83 67 206 242 441 437 588 95 72
260 157 376 193 80 25 212 52 296 59 70 6 227 -4 310 -19z m-1020 -1185 c58
-27 128 -105 144 -160 54 -179 -75 -359 -256 -359 -143 0 -273 132 -273 276 0
51 30 131 67 173 74 87 216 118 318 70z m887 9 c22 -6 60 -30 85 -52 143 -126
119 -349 -49 -442 -45 -25 -64 -29 -128 -29 -65 0 -82 4 -130 31 -190 108
-184 381 12 478 58 29 142 35 210 14z m-1827 -373 c38 -37 35 -95 -6 -129
l-31 -26 -264 0 c-277 0 -308 -4 -358 -48 -22 -19 -55 -88 -56 -114 0 -16 12
-18 106 -18 143 0 149 -5 193 -190 18 -74 35 -143 37 -152 4 -15 17 -18 68
-18 l63 0 30 48 c33 53 105 106 167 123 43 12 120 5 164 -13 50 -22 112 -80
137 -128 70 -138 22 -290 -115 -364 -126 -69 -306 -12 -361 113 l-14 31 -103
0 c-119 0 -163 14 -180 56 -6 16 -23 76 -37 134 -14 58 -31 122 -36 143 l-10
37 -54 0 -55 0 0 -455 0 -455 235 0 234 0 17 35 c20 43 84 101 138 126 59 27
148 25 211 -5 102 -47 158 -134 159 -246 1 -112 -56 -199 -162 -248 -44 -20
-65 -23 -120 -20 -103 6 -179 54 -223 140 l-19 38 -235 0 -235 0 0 -500 0
-501 61 3 61 3 80 200 c45 114 90 211 104 225 20 20 36 25 94 28 64 4 72 7 84
31 21 40 84 98 132 121 30 15 62 21 110 21 143 0 250 -96 270 -244 22 -156
-132 -311 -291 -294 -94 10 -178 66 -221 148 -9 19 -22 29 -38 29 -20 0 -30
-19 -91 -172 -93 -234 -102 -253 -131 -267 -14 -6 -70 -11 -124 -11 l-100 0 0
-90 0 -90 874 0 c1007 0 899 12 962 -111 l34 -69 400 0 400 0 34 69 c20 38 47
78 62 90 l27 21 1074 -2 1075 -3 24 -28 c24 -28 24 -29 24 -262 0 -260 -8
-309 -69 -404 -39 -60 -115 -132 -167 -159 -108 -55 -17 -52 -1695 -52 l-1548
0 -28 24 c-36 31 -39 95 -5 128 l23 23 1557 5 1557 5 41 22 c58 31 103 79 130
138 22 46 24 63 24 213 l0 162 -971 -2 -972 -3 -33 -65 c-19 -36 -45 -75 -59
-87 l-26 -23 -478 0 c-553 0 -506 -9 -567 111 l-34 69 -970 0 -970 0 0 -159
c0 -175 9 -216 59 -280 16 -20 53 -50 83 -67 l53 -29 648 -5 649 -5 24 -28
c33 -39 31 -81 -5 -118 l-29 -29 -640 0 c-599 0 -644 1 -701 19 -33 10 -80 30
-103 44 -65 38 -145 128 -181 204 l-32 68 -3 260 -3 260 26 25 c24 23 36 25
136 28 l109 4 0 1342 c0 1158 2 1349 15 1392 31 106 131 206 238 239 30 10
120 14 330 14 l288 1 24 -25z m988 -1125 c109 -41 177 -128 201 -259 l12 -65
176 -103 177 -102 123 71 c68 39 148 85 177 102 55 31 55 31 66 96 14 85 49
153 103 201 123 108 317 104 429 -8 46 -46 93 -132 93 -171 0 -14 19 -42 49
-72 88 -88 115 -216 69 -337 -27 -74 -107 -155 -178 -180 l-49 -17 48 -19
c158 -58 242 -249 181 -410 -14 -38 -38 -74 -71 -107 -30 -30 -49 -58 -49 -72
0 -36 -44 -119 -84 -161 -87 -88 -226 -120 -337 -78 -113 43 -194 148 -206
267 -6 59 10 140 34 166 21 23 69 32 102 18 42 -17 55 -49 47 -117 -5 -45 -2
-66 11 -93 67 -132 253 -88 253 60 0 54 17 82 71 115 51 33 73 76 66 132 -6
52 -43 97 -94 114 -43 14 -77 6 -129 -31 -70 -49 -83 -49 -187 11 -494 282
-1046 605 -1064 622 -20 18 -23 29 -20 97 2 86 -11 117 -66 150 -86 53 -197
-10 -197 -112 0 -57 -17 -87 -68 -121 -55 -37 -76 -77 -69 -136 4 -36 13 -52
40 -78 62 -56 118 -53 206 12 19 14 43 25 55 25 19 0 136 -64 451 -246 66 -39
193 -112 281 -163 164 -95 184 -113 184 -167 0 -35 -51 -84 -86 -84 -15 0 -62
20 -105 45 l-77 45 -75 -43 c-41 -23 -122 -69 -180 -102 l-105 -60 -5 -54
c-12 -110 -82 -211 -187 -267 -53 -29 -199 -26 -262 5 -90 44 -178 158 -178
232 0 18 -12 35 -38 56 -61 49 -95 123 -100 219 -4 73 -1 88 23 143 34 75 105
143 176 168 l48 17 -49 19 c-59 22 -140 96 -171 157 -15 31 -24 69 -27 120 -5
101 22 176 90 241 31 31 48 56 48 72 0 40 59 144 102 182 86 73 214 95 321 55z
m-1658 -2216 c20 -8 45 -56 45 -88 0 -14 -11 -37 -24 -53 -19 -22 -32 -28 -66
-28 -73 0 -110 67 -75 135 8 15 20 30 27 33 19 8 74 8 93 1z m380 -19 c38 -37
35 -95 -6 -129 -17 -14 -39 -26 -50 -26 -34 0 -76 28 -88 59 -37 88 77 164
144 96z m3808 5 c49 -39 42 -116 -14 -145 -40 -21 -63 -19 -98 11 -89 74 21
206 112 134z m358 7 c44 -33 50 -93 15 -134 -53 -61 -156 -21 -156 61 0 48 38
86 87 86 21 0 45 -6 54 -13z m-3816 -1273 c124 -32 225 -115 283 -233 36 -74
37 -77 37 -191 0 -114 -1 -117 -37 -191 -111 -224 -376 -312 -599 -198 -51 25
-122 91 -159 144 -97 143 -97 347 0 490 106 155 295 227 475 179z m-1025 -314
l0 -310 220 0 220 0 0 -115 0 -115 -365 0 -365 0 0 425 0 425 145 0 145 0 0
-310z m1740 0 l0 -310 220 0 220 0 0 -115 0 -115 -365 0 -365 0 0 425 0 425
145 0 145 0 0 -310z m1228 295 c108 -32 172 -125 172 -250 0 -47 -7 -83 -19
-110 -21 -45 -77 -105 -118 -125 -16 -8 -30 -15 -31 -16 -2 -2 40 -74 93 -161
54 -87 99 -161 102 -165 2 -5 -65 -8 -150 -8 l-155 0 -89 153 -88 152 -68 3
-67 3 0 -156 0 -155 -145 0 -145 0 0 425 0 425 328 0 c267 0 338 -3 380 -15z
m673 -120 c52 -74 98 -133 102 -132 5 1 50 61 100 132 l93 130 147 3 147 3 0
-426 0 -425 -145 0 -145 0 -2 221 -3 222 -93 -122 c-51 -66 -96 -121 -100
-121 -4 0 -48 54 -97 120 -50 66 -93 120 -97 120 -5 0 -8 -99 -8 -220 l0 -220
-140 0 -140 0 0 425 0 425 144 0 143 0 94 -135z m1090 0 c52 -74 98 -133 102
-132 5 1 50 61 100 132 l93 130 147 3 147 3 0 -426 0 -425 -145 0 -145 0 -2
221 -3 222 -93 -122 c-51 -66 -96 -121 -100 -121 -4 0 -48 54 -97 120 -50 66
-93 120 -97 120 -5 0 -8 -99 -8 -220 l0 -220 -140 0 -140 0 0 425 0 425 144 0
143 0 94 -135z"/>
<path d="M7386 7489 c-30 -35 -32 -58 -11 -99 21 -40 73 -57 114 -35 87 44 59
165 -38 165 -32 0 -44 -6 -65 -31z"/>
<path d="M7475 6488 c-21 -25 -25 -38 -21 -62 22 -107 176 -99 176 9 0 82
-101 117 -155 53z"/>
<path d="M5206 8579 c-14 -17 -26 -39 -26 -50 0 -50 49 -99 100 -99 10 0 32
12 49 26 25 21 31 33 31 65 0 86 -100 123 -154 58z"/>
<path d="M6129 8597 c-50 -39 -48 -115 4 -148 89 -55 186 63 112 136 -27 28
-88 34 -116 12z"/>
<path d="M4430 7703 c-62 -23 -81 -103 -35 -148 55 -55 149 -17 149 61 0 55
-66 105 -114 87z"/>
<path d="M4415 6968 c-32 -19 -44 -40 -45 -80 0 -93 119 -120 164 -38 17 33
17 38 3 73 -22 51 -76 71 -122 45z"/>
<path d="M4395 6225 c-38 -37 -35 -95 6 -129 35 -30 58 -32 99 -11 31 16 55
70 44 101 -24 66 -102 87 -149 39z"/>
<path d="M6609 7097 c-51 -34 -70 -80 -63 -152 5 -51 3 -64 -14 -85 -11 -14
-92 -65 -181 -115 -88 -49 -159 -94 -157 -100 1 -5 40 -31 85 -57 l82 -48 92
54 c186 109 201 112 271 57 66 -53 135 -50 190 8 59 61 43 158 -33 206 -54 33
-71 61 -71 115 0 111 -112 176 -201 117z"/>
<path d="M5307 6460 l-59 -26 39 -12 c21 -6 47 -18 57 -25 17 -12 25 -11 63
11 47 26 47 28 -7 59 l-35 20 -58 -27z"/>
<path d="M6591 6463 c-23 -13 -41 -26 -41 -28 0 -11 90 -51 98 -43 5 5 29 16
53 26 l45 17 -57 26 -57 27 -41 -25z"/>
<path d="M5505 6254 c-146 -84 -157 -85 -228 -34 -58 41 -95 46 -149 22 -98
-43 -104 -187 -11 -235 49 -26 64 -52 73 -122 9 -73 26 -100 77 -121 45 -19
82 -17 120 6 55 33 68 64 66 150 -2 49 2 82 10 93 6 9 84 57 172 107 88 50
164 95 168 99 7 7 -72 59 -148 99 -18 9 -41 -1 -150 -64z"/>
<path d="M4346 3510 c-92 -29 -137 -152 -83 -230 38 -56 72 -75 133 -74 148 1
210 188 92 277 -38 29 -99 41 -142 27z"/>
<path d="M6030 3510 l0 -50 133 0 c145 0 181 11 175 53 -5 37 -43 47 -180 47
l-128 0 0 -50z"/>
</g>
</svg>
