<?xml version="1.0" encoding="UTF-8"?>
<svg version="1.1" xmlns="http://www.w3.org/2000/svg" width="1200" height="1200">
<path d="M0 0 C396 0 792 0 1200 0 C1200 396 1200 792 1200 1200 C804 1200 408 1200 0 1200 C0 804 0 408 0 0 Z " fill="#1F7F19" transform="translate(0,0)"/>
<path d="M0 0 C1.16463272 -0.0159874 2.32926544 -0.03197479 3.52919006 -0.04844666 C5.39504005 -0.05649071 5.39504005 -0.05649071 7.29858398 -0.06469727 C9.23241188 -0.07823997 9.23241188 -0.07823997 11.20530701 -0.09205627 C13.92612201 -0.10848843 16.64681474 -0.11623655 19.36767578 -0.11914062 C22.84709694 -0.12453839 26.32536482 -0.16229748 29.80445957 -0.20788479 C33.13582938 -0.24482722 36.4670163 -0.24616807 39.79858398 -0.25219727 C41.04450821 -0.27172958 42.29043243 -0.2912619 43.57411194 -0.31138611 C53.17259175 -0.26115974 53.17259175 -0.26115974 56.26245117 2.71240234 C57.89531461 5.17537423 58.68730125 6.39264135 58.66967773 9.30639648 C58.69416992 9.94577148 58.71866211 10.58514648 58.74389648 11.24389648 C57.46253705 14.71342357 55.17646895 16.64539237 51.98217773 18.30639648 C47.86748153 19.00444354 43.81024398 18.90886666 39.64624023 18.83764648 C37.85626114 18.84254089 37.85626114 18.84254089 36.03012085 18.84753418 C30.9379406 18.86068034 25.84663966 18.81597914 20.75463867 18.77661133 C17.03073309 18.75609788 13.30766836 18.7649803 9.58374023 18.77514648 C8.44079498 18.75552856 7.29784973 18.73591064 6.12026978 18.71569824 C-0.78208858 18.73807238 -5.80493071 19.5258618 -11.01782227 24.30639648 C-13.90306874 27.98849662 -15.21105086 31.73208094 -16.01782227 36.30639648 C-15.41309082 36.2802124 -14.80835938 36.25402832 -14.18530273 36.22705078 C-11.4214113 36.12253832 -8.65793627 36.05790375 -5.89282227 35.99389648 C-4.94149414 35.95200195 -3.99016602 35.91010742 -3.01000977 35.86694336 C1.42138059 35.7900095 4.37627429 36.01790382 8.41967773 37.94311523 C12.84146128 42.40843586 13.55185435 49.53964139 14.85717773 55.43139648 C15.16507157 56.73265306 15.4749505 58.03344162 15.78686523 59.33374023 C17.98217773 68.69321987 17.98217773 68.69321987 17.98217773 72.30639648 C22.45742177 72.47239218 26.61880498 72.37369629 30.98217773 71.30639648 C33.06610308 69.24841211 34.1638912 67.24845522 35.52514648 64.66577148 C38.82987138 59.31442071 45.17185729 56.29978334 50.98217773 54.30639648 C59.79256591 52.85887615 66.66183261 55.46189283 73.98217773 60.30639648 C79.63128966 65.06116003 83.17168164 71.66001799 84.43530273 78.90405273 C84.97360647 87.40680499 81.80776022 94.86941953 76.27124023 101.29077148 C69.20218754 107.75207756 62.75560768 108.82068746 53.36108398 108.59155273 C46.14734034 107.98276281 41.20829242 105.41373584 35.98217773 100.30639648 C31.98217773 95.04323859 31.98217773 95.04323859 31.98217773 91.30639648 C31.31162354 91.32210693 30.64106934 91.33781738 29.95019531 91.35400391 C26.89844264 91.41654307 23.84682505 91.45544712 20.79467773 91.49389648 C19.21203125 91.53160156 19.21203125 91.53160156 17.59741211 91.57006836 C16.57583008 91.57973633 15.55424805 91.5894043 14.50170898 91.59936523 C13.09562378 91.62293091 13.09562378 91.62293091 11.66113281 91.64697266 C8.44943387 91.23866864 6.59306555 90.18785983 3.98217773 88.30639648 C-1.09602002 79.77034697 -5.01782227 64.30037031 -5.01782227 54.30639648 C-8.64782227 54.30639648 -12.27782227 54.30639648 -16.01782227 54.30639648 C-16.01782227 84.33639648 -16.01782227 114.36639648 -16.01782227 145.30639648 C-4.50907227 145.27545898 -4.50907227 145.27545898 7.23217773 145.24389648 C9.64949219 145.25541748 12.06680664 145.26693848 14.55737305 145.27880859 C16.47504782 145.25820456 18.39269739 145.23502375 20.31030273 145.20874023 C21.80182861 145.23007019 21.80182861 145.23007019 23.32348633 145.25183105 C28.3921482 145.32241196 28.3921482 145.32241196 32.46502686 142.76217651 C33.71512163 140.65673452 33.71512163 140.65673452 34.98217773 137.30639648 C40.24159571 131.33982987 45.93144089 127.92899424 53.80249023 126.95874023 C62.73580459 126.51321688 69.0744525 128.99332509 75.85717773 134.74389648 C81.52171602 141.57466324 84.51694343 147.94297296 84.30249023 156.90405273 C83.4538619 163.26876525 80.65715065 169.87747477 75.98217773 174.30639648 C67.44985038 180.0414699 61.30106024 182.04064988 50.98217773 181.30639648 C48.08824378 180.6537016 45.61294728 179.66325736 42.98217773 178.30639648 C41.95092773 177.79077148 40.91967773 177.27514648 39.85717773 176.74389648 C36.98217773 174.30639648 36.98217773 174.30639648 30.98217773 164.30639648 C15.47217773 163.97639648 -0.03782227 163.64639648 -16.01782227 163.30639648 C-16.01782227 196.30639648 -16.01782227 229.30639648 -16.01782227 263.30639648 C-12.05782227 263.30639648 -8.09782227 263.30639648 -4.01782227 263.30639648 C-3.65301758 262.15655273 -3.28821289 261.00670898 -2.91235352 259.82202148 C-0.69980696 253.20123191 1.84807041 246.71227899 4.43310547 240.23022461 C5.0092177 238.77663909 5.57819884 237.32020769 6.14013672 235.86108398 C6.96283045 233.72652727 7.80782683 231.60202567 8.65795898 229.47827148 C9.02392937 228.50938995 9.02392937 228.50938995 9.39729309 227.52093506 C11.40178358 222.62267452 13.72836771 220.25675946 17.98217773 217.30639648 C21.20092773 216.91577148 21.20092773 216.91577148 24.48217773 217.05639648 C29.17143744 217.00600352 29.17143744 217.00600352 32.84155273 214.46655273 C33.77498694 212.89072702 34.66820862 211.29043779 35.52124023 209.66967773 C38.2386158 205.27392314 43.0005873 202.31260609 47.86889648 200.66967773 C58.50686154 198.84097025 66.23960128 200.70321126 75.16967773 206.30639648 C80.15130894 210.85544907 83.33475099 217.65235918 84.49780273 224.21655273 C84.82987403 232.64879171 82.02178333 239.0243303 76.85717773 245.55639648 C71.25846618 251.49982701 65.10828056 254.54593632 56.91967773 254.86889648 C48.71341192 254.4796249 42.52394427 251.41774127 36.47045898 245.96264648 C34.91411883 244.23065639 33.91964496 242.55956981 32.85717773 240.49389648 C31.32003895 237.08789669 31.32003895 237.08789669 28.23217773 236.36889648 C27.48967773 236.34827148 26.74717773 236.32764648 25.98217773 236.30639648 C25.60963867 237.47686523 25.23709961 238.64733398 24.85327148 239.85327148 C22.74621563 246.16578838 20.30679719 252.34626187 17.84863281 258.52807617 C17.04202066 260.5631001 16.24749625 262.60260102 15.45288086 264.64233398 C14.93343796 265.9525232 14.41328052 267.2624294 13.89233398 268.57202148 C13.42964111 269.74539063 12.96694824 270.91875977 12.49023438 272.12768555 C10.69459127 275.9125768 8.82522008 279.38487531 4.98217773 281.30639648 C3.3877031 281.39040178 1.78977229 281.41367115 0.19311523 281.40405273 C-0.74790039 281.40083008 -1.68891602 281.39760742 -2.65844727 281.39428711 C-3.64329102 281.3859082 -4.62813477 281.3775293 -5.64282227 281.36889648 C-6.63540039 281.36438477 -7.62797852 281.35987305 -8.65063477 281.35522461 C-11.10638949 281.3434181 -13.56211333 281.32548231 -16.01782227 281.30639648 C-16.01782227 287.24639648 -16.01782227 293.18639648 -16.01782227 299.30639648 C-13.8387326 299.29529343 -11.65964294 299.28419037 -9.41452026 299.27275085 C11.09786683 299.17062165 31.61022042 299.09618819 52.12280464 299.04733562 C62.66913005 299.02155115 73.21526892 298.98639585 83.76147461 298.92919922 C92.95327754 298.87937185 102.14494538 298.84710724 111.33687961 298.83595401 C116.20426014 298.82943414 121.0712542 298.81410545 125.93851089 298.7777462 C130.52024417 298.7437973 135.10143194 298.73334128 139.68327904 298.74085808 C141.36429878 298.73948303 143.04533684 298.72954373 144.72624779 298.71036911 C147.02382443 298.6854466 149.31934859 298.69148616 151.61697388 298.7051239 C152.9019533 298.70051494 154.18693272 298.69590597 155.51085091 298.69115734 C160.18529551 299.51963056 161.77717201 300.77398659 164.98217773 304.30639648 C166.96217773 308.26639648 168.94217773 312.22639648 170.98217773 316.30639648 C197.38217773 316.30639648 223.78217773 316.30639648 250.98217773 316.30639648 C253.29217773 312.01639648 255.60217773 307.72639648 257.98217773 303.30639648 C262.08767805 299.20089617 262.67012377 298.84679701 268.07623905 298.77608496 C268.89384002 298.78568997 269.71144099 298.79529497 270.55381775 298.80519104 C271.42758782 298.79965664 272.3013579 298.79412225 273.20160586 298.78842014 C276.13517983 298.77478575 279.06790711 298.78979804 282.00146484 298.8046875 C284.10229352 298.80090531 286.20311971 298.79540611 288.30393982 298.78831482 C294.01470597 298.77432906 299.72517189 298.78555238 305.43592143 298.80202603 C311.4073618 298.8158563 317.37878439 298.80941869 323.35023499 298.80589294 C333.38018645 298.80318901 343.41001838 298.81668149 353.43994141 298.83984375 C365.04044172 298.86644733 376.64074202 298.86820353 388.24126238 298.85645539 C399.39306636 298.84568012 410.54479791 298.8518632 421.69659615 298.86601067 C426.44570182 298.87177336 431.19475454 298.87168552 435.94386101 298.86694527 C441.53596232 298.86217679 447.12784435 298.872272 452.71990395 298.89389992 C454.77381018 298.89946996 456.82773747 298.8999311 458.8816452 298.89494705 C461.68252577 298.88900223 464.48273412 298.90148416 467.28355408 298.91871643 C468.09892433 298.91270639 468.91429458 298.90669634 469.75437301 298.90050417 C475.62103827 298.96626589 478.87021343 300.19443218 482.98217773 304.30639648 C483.24960327 306.3263855 483.24960327 306.3263855 483.27270508 308.84106445 C483.29184464 310.25426468 483.29184464 310.25426468 483.31137085 311.6960144 C483.31470932 313.23178635 483.31470932 313.23178635 483.31811523 314.79858398 C483.32477203 315.85490021 483.33142883 316.91121643 483.33828735 317.99954224 C483.34843383 320.24406186 483.35310376 322.48861177 483.3527832 324.7331543 C483.35711618 328.1330931 483.39330316 331.53169107 483.43139648 334.93139648 C483.52737997 353.09457369 481.28587262 365.31249453 468.66967773 379.11889648 C458.44692745 388.79521913 444.45149365 390.76239879 430.96218872 390.70080566 C429.6945002 390.70689677 428.42681167 390.71298787 427.12070835 390.71926355 C423.63206029 390.73554765 420.14363991 390.73336906 416.65496731 390.72788858 C412.88131427 390.72520428 409.10772002 390.73977565 405.33409119 390.75198364 C397.95510859 390.77297534 390.57620466 390.77758232 383.19719572 390.77579576 C377.20111432 390.7744859 371.20505737 390.77830363 365.20898056 390.78572083 C363.47911132 390.78782007 361.74924207 390.78991767 360.01937282 390.79201365 C358.72777373 390.79357894 358.72777373 390.79357894 357.41008173 390.79517585 C341.15020173 390.81405017 324.89036692 390.81303557 308.63048051 390.80620652 C293.75177639 390.80062309 278.87324401 390.82149552 263.99458005 390.85456699 C248.70851509 390.88828016 233.42253251 390.90347597 218.13642967 390.89884996 C209.55760626 390.89660417 200.97894194 390.90186572 192.4001503 390.92674255 C185.10287936 390.94772408 177.80585491 390.95137829 170.50857396 390.93244296 C166.78527302 390.92326865 163.06243208 390.92219362 159.33916664 390.94279861 C155.30583875 390.96487345 151.2736008 390.94833461 147.24026489 390.92785645 C146.06002939 390.94037429 144.87979389 390.95289214 143.66379368 390.96578932 C135.77255863 390.87949457 135.77255863 390.87949457 131.78245354 387.98630524 C129.49999618 384.58861615 128.90905662 382.40117899 128.98217773 378.30639648 C130.74858946 375.50450203 132.01267595 373.79114738 134.98217773 372.30639648 C136.66134356 372.21188056 138.34428404 372.18160348 140.02610779 372.18169785 C141.10029213 372.1793069 142.17447647 372.17691595 143.28121185 372.17445254 C144.470868 372.17688504 145.66052414 372.17931753 146.88623047 372.18182373 C148.14270134 372.18041358 149.39917221 372.17900343 150.69371796 372.17755055 C153.46082263 372.17448408 156.22790327 372.17460467 158.99500847 372.17710686 C163.49696872 372.18115741 167.99891006 372.17840202 172.50086975 372.17475891 C178.18990892 372.17066413 183.87894387 372.16842918 189.56798452 372.16834292 C200.75294308 372.16814034 211.93785819 372.15568899 223.12280273 372.13873291 C224.88296063 372.13612705 226.64311853 372.13352824 228.40327644 372.13093638 C231.07119725 372.12699778 233.73911805 372.12305128 236.40703881 372.11907516 C246.47228523 372.10412062 256.53753298 372.09050117 266.6027832 372.07836914 C267.98330199 372.0766988 267.98330199 372.0766988 269.39171004 372.07499471 C284.29341016 372.05743398 299.19508312 372.05454955 314.09679186 372.05621955 C329.39505795 372.05749933 344.69322303 372.03974226 359.99145031 372.00520158 C369.4271137 371.98456253 378.86253508 371.97920593 388.29821128 371.99352989 C394.76976862 372.00200002 401.24113814 371.99222855 407.71265584 371.96822038 C411.44460097 371.9549344 415.17609542 371.94968748 418.90803719 371.96634102 C422.95982174 371.98422127 427.01050569 371.96333055 431.06225586 371.93890381 C432.23406623 371.95025919 433.4058766 371.96161457 434.61319637 371.97331405 C443.48479873 371.86943612 449.79491754 369.56315441 456.79467773 364.11889648 C464.15576185 354.65464547 464.75368644 345.73845623 464.79467773 334.18139648 C464.81786502 332.637091 464.84323902 331.09281672 464.87084961 329.54858398 C464.93315776 325.80121182 464.96592137 322.05428472 464.98217773 318.30639648 C439.82590325 318.10991743 414.67035831 317.99347236 389.51329803 317.97217751 C377.8321538 317.96042577 366.15218881 317.92253462 354.47143555 317.82299805 C344.28977103 317.73630226 334.10931136 317.69876206 323.927279 317.7201246 C318.53584891 317.72972256 313.14701416 317.71479317 307.75602722 317.64097977 C302.67900142 317.57224215 297.6061506 317.56934812 292.52891922 317.6164875 C290.66807743 317.62224547 288.80698185 317.60414615 286.94665146 317.56014442 C277.59490235 316.98185473 277.59490235 316.98185473 269.48266029 320.71212339 C267.30287224 323.61894286 265.83034883 326.65661867 264.46479034 330.01003075 C262.96744923 333.33914309 262.16854774 334.63506122 258.98217773 336.30639648 C257.00747871 336.68950653 257.00747871 336.68950653 254.89700317 336.70080566 C253.69012344 336.71783035 253.69012344 336.71783035 252.4588623 336.73519897 C251.58499878 336.73226837 250.71113525 336.72933777 249.81079102 336.72631836 C248.88350189 336.7347879 247.95621277 336.74325745 247.00082397 336.75198364 C243.9345733 336.77538796 240.86882349 336.7763749 237.80249023 336.77514648 C235.67023518 336.78224648 233.53798203 336.78994524 231.4057312 336.79821777 C226.93522838 336.81167085 222.46490217 336.81322782 217.99438477 336.80737305 C212.26867043 336.80147926 206.5438047 336.83205194 200.81825447 336.87248993 C196.41384321 336.89835563 192.0096365 336.90124528 187.60515976 336.89759827 C185.49445337 336.89929087 183.38373767 336.90894684 181.27310562 336.92674255 C178.31894639 336.94890722 175.36650746 336.93924232 172.41235352 336.92163086 C171.54253845 336.9348941 170.67272339 336.94815735 169.77655029 336.96182251 C165.70740703 336.90552931 163.38000217 336.52774201 159.76779175 334.51794434 C156.98217773 331.30639648 156.98217773 331.30639648 150.98217773 319.30639648 C54.95217773 318.81139648 54.95217773 318.81139648 -43.01782227 318.30639648 C-44.51240843 343.92415221 -44.51240843 343.92415221 -34.01782227 365.30639648 C-26.06080177 370.81597359 -18.66154721 372.17435473 -9.16845703 372.03173828 C-7.94578629 372.03754913 -6.72311554 372.04335999 -5.46339417 372.04934692 C-2.83030988 372.05770786 -0.19994619 372.05550247 2.43279839 372.03427696 C6.59816851 372.00090034 10.76280122 372.01059405 14.92823792 372.02558899 C21.5129285 372.04437789 28.09723149 372.03551862 34.6819039 372.01426774 C46.48848587 371.9764104 58.29501682 371.97243726 70.10162693 371.99912006 C74.24004787 372.00719345 78.37800182 371.99865735 82.51636779 371.97655714 C85.69043177 371.96285908 88.86448644 371.96778578 92.03857422 371.96923828 C93.17993835 371.95837692 94.32130249 371.94751556 95.49725342 371.93632507 C97.07182564 371.94212585 97.07182564 371.94212585 98.6782074 371.94804382 C99.58717994 371.94485988 100.49615248 371.94167593 101.43266964 371.9383955 C104.57402946 372.39182552 106.42496151 373.44983452 108.98217773 375.30639648 C111.32386537 378.81892794 111.47841451 380.17109004 110.98217773 384.30639648 C109.18223999 387.0063031 107.89840474 388.84828298 104.98217773 390.30639648 C103.28845645 390.40999468 101.59070145 390.45023702 99.8938446 390.46029663 C98.81604233 390.46889709 97.73824005 390.47749756 96.6277771 390.48635864 C95.43979523 390.49061859 94.25181335 390.49487854 93.02783203 390.49926758 C91.78045761 390.50744507 90.53308319 390.51562256 89.24790955 390.52404785 C85.1007418 390.54895032 80.95361072 390.56558951 76.80639648 390.57983398 C75.37591864 390.58519509 73.94544087 390.5905726 72.51496315 390.59596634 C66.55724684 390.61760881 60.59953323 390.63633879 54.64178753 390.64758873 C46.12471733 390.66377913 37.60810696 390.6968204 29.09121007 390.75398958 C23.09356412 390.79286139 17.09604017 390.81224235 11.09827167 390.81750929 C7.52230789 390.82114279 3.94683426 390.8329452 0.37100792 390.86561203 C-3.63297785 390.90166117 -7.63599513 390.8972785 -11.64013672 390.88989258 C-12.80585205 390.90629791 -13.97156738 390.92270325 -15.17260742 390.93960571 C-26.8929134 390.8516788 -37.24825505 387.14468222 -46.01782227 379.30639648 C-46.62110352 378.80624023 -47.22438477 378.30608398 -47.84594727 377.79077148 C-54.78177029 371.57868651 -60.40564155 361.22786556 -61.23286438 351.87507629 C-61.34836482 348.9016674 -61.39991681 345.93431119 -61.42407227 342.95874023 C-61.43547241 341.86928604 -61.44687256 340.77983185 -61.45861816 339.65736389 C-61.47746182 337.36031958 -61.49056369 335.06322189 -61.49829102 332.76611328 C-61.51777789 329.25189846 -61.5798982 325.73998837 -61.64282227 322.22631836 C-61.65587665 319.99130617 -61.66637982 317.75627731 -61.67407227 315.52124023 C-61.69876587 314.47218002 -61.72345947 313.42311981 -61.74890137 312.3422699 C-61.74289917 311.3609761 -61.73689697 310.37968231 -61.73071289 309.36865234 C-61.73800415 308.509608 -61.74529541 307.65056366 -61.75280762 306.76548767 C-60.86438256 303.79302266 -59.40950471 302.28052333 -57.01053762 300.35519797 C-52.99512968 298.24181746 -48.56305849 298.79923838 -44.14282227 298.99389648 C-43.16829102 299.01645508 -42.19375977 299.03901367 -41.18969727 299.06225586 C-38.79746712 299.12088895 -36.40846077 299.20288496 -34.01782227 299.30639648 C-34.01934115 298.73676591 -34.02086003 298.16713534 -34.02242494 297.58024323 C-34.11198197 263.80206895 -34.18059107 230.02392171 -34.22208358 196.24565453 C-34.22708627 192.18777665 -34.23226357 188.12989901 -34.23754883 184.07202148 C-34.23859807 183.26418799 -34.23964731 182.45635449 -34.24072835 181.62404118 C-34.25812267 168.55220964 -34.28965499 155.48044862 -34.32643345 142.40865888 C-34.36386996 128.99084775 -34.38606384 115.5730735 -34.39417624 102.15521228 C-34.39965841 93.87895349 -34.4169589 85.60289408 -34.44948813 77.32669668 C-34.47066951 71.64757469 -34.47701414 65.96855543 -34.47182778 60.28939684 C-34.46927157 57.01517183 -34.47532907 53.74136684 -34.49464417 50.46718788 C-34.51459634 46.91023276 -34.50974135 43.3541251 -34.49884033 39.79714966 C-34.5104917 38.77183108 -34.52214306 37.74651251 -34.5341475 36.69012368 C-34.4456576 25.98014356 -30.65088548 16.88333424 -23.01782227 9.30639648 C-15.90185459 3.88667692 -9.0975567 0.09492392 0 0 Z " fill="#ECE2D5" transform="translate(389.017822265625,356.693603515625)"/>
<path d="M0 0 C0.71867249 0.00337372 1.43734497 0.00674744 2.17779541 0.01022339 C13.40751627 0.08634179 23.92075755 0.85772877 34.625 4.4375 C35.41535645 4.6948291 36.20571289 4.9521582 37.02001953 5.21728516 C62.87618986 13.78581219 62.87618986 13.78581219 67.625 21.4375 C68.20990372 25.36471068 67.97094305 26.91858543 65.75 30.25 C63.10510415 32.9726869 62.28843855 33.37538029 58.49609375 33.73046875 C53.80840986 33.37569954 50.79106568 31.90247795 46.6875 29.75 C31.92138057 22.40275667 17.95677663 19.25906159 1.4375 19.25 C-0.2959668 19.23163086 -0.2959668 19.23163086 -2.06445312 19.21289062 C-30.08481823 19.16569181 -57.45925851 30.5980003 -77.40625 50.30078125 C-85.82466023 58.99453456 -94.52094444 69.87533332 -98.375 81.4375 C-97.63894531 81.37949219 -96.90289063 81.32148438 -96.14453125 81.26171875 C-88.23777827 80.89614893 -88.23777827 80.89614893 -84.1875 83.4375 C-82.2081976 86.71358673 -81.78629188 88.63742251 -81.7109375 92.375 C-82.78997831 95.72637381 -84.65246491 97.26826612 -87.375 99.4375 C-90.72265625 100.1875 -90.72265625 100.1875 -94.4375 100.4375 C-106.89863954 101.66685692 -116.58447836 106.46206447 -125.375 115.4375 C-127.75454399 118.61831901 -129.64088654 121.86865899 -131.375 125.4375 C-131.70113281 126.10136719 -132.02726562 126.76523437 -132.36328125 127.44921875 C-136.86894916 137.29335575 -136.9682996 150.02368632 -133.34375 160.17578125 C-128.87855872 170.6005625 -122.36188162 178.7275489 -113.0390625 185.24609375 C-111.375 186.4375 -111.375 186.4375 -109.375 188.4375 C-109.10998535 190.54928589 -109.10998535 190.54928589 -109.08789062 193.19091797 C-109.07447632 194.17889374 -109.06106201 195.16686951 -109.04724121 196.18478394 C-109.04196411 197.25560211 -109.03668701 198.32642029 -109.03125 199.4296875 C-109.0166272 200.52717316 -109.00200439 201.62465881 -108.98693848 202.75540161 C-108.94030649 206.27439728 -108.90618551 209.79333551 -108.875 213.3125 C-108.83391297 217.93510679 -108.78023093 222.55731206 -108.71875 227.1796875 C-108.7134729 228.24645721 -108.7081958 229.31322693 -108.70275879 230.412323 C-108.68934448 231.40660309 -108.67593018 232.40088318 -108.66210938 233.42529297 C-108.65481812 234.29862274 -108.64752686 235.17195251 -108.64001465 236.07174683 C-108.35229863 238.64015233 -107.75274024 240.26055951 -106.375 242.4375 C-103.24557535 244.00221233 -99.76417777 244.13451958 -96.375 243.4375 C-93.78650104 241.36002743 -92.51153792 240.18727965 -91.90844727 236.87548828 C-91.91932373 235.92915527 -91.9302002 234.98282227 -91.94140625 234.0078125 C-91.9269043 232.44353516 -91.9269043 232.44353516 -91.91210938 230.84765625 C-91.92897634 228.66533032 -91.94978138 226.48303113 -91.97460938 224.30078125 C-91.88047911 215.31964631 -91.88047911 215.31964631 -89.0546875 211.75390625 C-85.66139965 208.82064139 -83.85514008 208.20170315 -79.375 208.4375 C-76.48587779 210.03822988 -75.16632924 210.78761498 -73.375 213.4375 C-72.55918791 217.43637864 -72.62680127 221.36825704 -72.6875 225.4375 C-72.69646225 227.58331817 -72.69300037 229.7292322 -72.67578125 231.875 C-72.68778564 232.82246094 -72.69979004 233.76992188 -72.7121582 234.74609375 C-72.27331686 238.24919803 -70.88601444 240.92648556 -68.375 243.4375 C-66.37891573 243.75312553 -66.37891573 243.75312553 -64.0625 243.8125 C-62.89267578 243.88597656 -62.89267578 243.88597656 -61.69921875 243.9609375 C-59.22476909 243.57451648 -59.22476909 243.57451648 -57.10546875 241.6953125 C-53.97662693 235.80489698 -54.94293836 229.05805827 -55.0625 222.51953125 C-55.00478998 214.39203699 -55.00478998 214.39203699 -53.12646484 211.54516602 C-50.28934507 209.03268077 -48.54270247 208.44039142 -44.75 208.375 C-41.15347271 209.50724007 -39.6820225 210.50935605 -37.375 213.4375 C-36.09464623 215.99820754 -36.23230371 217.87783913 -36.19921875 220.7421875 C-36.16344727 222.32966797 -36.16344727 222.32966797 -36.12695312 223.94921875 C-36.08413777 226.18340206 -36.05280407 228.4178362 -36.03320312 230.65234375 C-36.00548828 231.71324219 -35.97777344 232.77414062 -35.94921875 233.8671875 C-35.93463623 234.83897949 -35.92005371 235.81077148 -35.9050293 236.81201172 C-35.23399181 240.13598092 -33.98334821 241.33858053 -31.375 243.4375 C-28.46715119 244.14632303 -26.432461 243.77721789 -23.375 243.4375 C-21.20023599 241.89411909 -20.55667363 240.80084727 -19.375 238.4375 C-19.26914825 236.68320314 -19.21965156 234.9253374 -19.19921875 233.16796875 C-19.17537109 232.11416016 -19.15152344 231.06035156 -19.12695312 229.97460938 C-19.08421355 227.75344657 -19.05283913 225.53203406 -19.03320312 223.31054688 C-18.82115699 215.21827474 -18.82115699 215.21827474 -16.546875 211.23828125 C-13.48999644 208.70371107 -11.31206958 208.4375 -7.375 208.4375 C-3.80112398 210.02588934 -2.56410428 211.15384358 -0.375 214.4375 C-0.08789062 216.91772461 -0.08789062 216.91772461 -0.03125 219.83984375 C-0.00160156 220.89494141 0.02804687 221.95003906 0.05859375 223.03710938 C0.08050781 224.13861328 0.10242188 225.24011719 0.125 226.375 C0.16844275 228.55097092 0.2201913 230.72679587 0.28125 232.90234375 C0.29994141 233.867771 0.31863281 234.83319824 0.33789062 235.82788086 C0.63392828 238.51865166 1.16764045 240.17053208 2.625 242.4375 C5.75442465 244.00221233 9.23582223 244.13451958 12.625 243.4375 C14.94644245 242.15328229 14.94644245 242.15328229 16.625 239.4375 C17.21705194 235.72501939 17.13391737 232.03717849 17.09375 228.28515625 C17.10079956 227.19287216 17.10784912 226.10058807 17.1151123 224.97520447 C17.14464572 220.30243889 17.12795936 215.63008786 17.11572266 210.95727539 C17.11334427 207.54548118 17.13425022 204.13436624 17.15625 200.72265625 C17.14493042 199.66732193 17.13361084 198.61198761 17.12194824 197.52467346 C17.17261457 190.17352116 17.17261457 190.17352116 19.53808594 186.32495117 C21.42549728 184.61793467 23.26202803 183.10196884 25.375 181.6875 C35.28705622 174.41496713 39.79552688 165.92591935 43.625 154.4375 C44.95349339 140.10076579 43.30735506 128.45511873 34.53125 116.72265625 C26.75371635 107.39917842 16.64353695 102.14832377 4.625 100.4375 C3.83867188 100.39625 3.05234375 100.355 2.2421875 100.3125 C-1.89765223 100.0938946 -4.53450797 99.8983153 -7.4375 96.75 C-9.56542891 93.111928 -10.16339065 91.55465117 -9.375 87.4375 C-7.57506226 84.73759338 -6.291227 82.8956135 -3.375 81.4375 C11.49708933 79.72903023 27.57468145 85.79725241 39.44140625 94.50390625 C52.79613117 105.90129744 61.81683357 121.78073654 63.49609375 139.359375 C63.55990234 140.38804687 63.55990234 140.38804687 63.625 141.4375 C63.70427734 142.68273437 63.70427734 142.68273437 63.78515625 143.953125 C64.34894533 161.11192314 57.04394712 177.00801807 45.6953125 189.57421875 C41.31385284 194.05910343 41.31385284 194.05910343 38.56054688 195.5715332 C36.19136495 197.85554651 36.11842317 199.43845727 36.01934814 202.65629578 C36.01811951 203.34077286 36.01689087 204.02524994 36.015625 204.73046875 C35.99908875 205.43649734 35.98255249 206.14252594 35.96551514 206.86994934 C35.91698712 209.12172092 35.89565562 211.37281709 35.875 213.625 C35.84684401 215.15302886 35.81691709 216.68102619 35.78515625 218.20898438 C35.71122806 221.95176728 35.66168377 225.69417424 35.625 229.4375 C52.52022669 221.93579232 52.52022669 221.93579232 67.625 211.4375 C68.4809375 210.71820313 69.336875 209.99890625 70.21875 209.2578125 C87.03438075 194.62010983 97.73954892 176.99051469 103.9375 155.6875 C104.19233154 154.812146 104.44716309 153.93679199 104.7097168 153.03491211 C108.93927626 137.7851367 109.57727006 119.79229633 105.625 104.4375 C105.25761719 102.75914062 105.25761719 102.75914062 104.8828125 101.046875 C100.90186092 84.20709754 93.0298408 68.29881377 81.125 55.625 C77.9337731 52.06146329 77.625 49.18368256 77.625 44.4375 C78.71070284 40.99944102 79.51887212 40.50825192 82.625 38.4375 C86.67726702 37.75067508 89.10205571 37.42423847 92.57421875 39.734375 C112.90514068 59.03431711 125.91376011 90.59232145 126.97265625 118.34375 C127.01718934 120.79144477 127.0471793 123.23944809 127.0625 125.6875 C127.07265137 126.8228418 127.08280273 127.95818359 127.09326172 129.12792969 C127.02916874 135.39098683 126.39338584 141.26272507 125.09790039 147.37011719 C124.95677071 148.05431732 124.81564102 148.73851746 124.67023468 149.44345093 C124.32605411 151.10901387 123.97613239 152.77338876 123.625 154.4375 C124.54462021 154.42861755 125.46424042 154.41973511 126.41172791 154.4105835 C135.10611411 154.33021688 143.80037437 154.26942374 152.49504757 154.23025131 C156.96438974 154.20943482 161.43342329 154.18122674 165.90258789 154.13574219 C170.22090727 154.09207117 174.53893102 154.06831829 178.8574543 154.05799103 C180.49959525 154.05063759 182.14172122 154.03627845 183.78373528 154.01457977 C200.19301927 153.80648967 200.19301927 153.80648967 207.625 158.4375 C208.65625 159.035625 209.6875 159.63375 210.75 160.25 C218.99617622 166.52426452 225.02720433 173.9127212 226.625 184.4375 C226.7758686 187.72698902 226.77282002 191.01375751 226.77217102 194.30627441 C226.77584771 195.30748904 226.7795244 196.30870366 226.7833125 197.34025812 C226.79433546 200.69884915 226.79819076 204.05740923 226.80200195 207.41601562 C226.8082674 209.82240395 226.81491427 212.22879131 226.82191467 214.63517761 C226.84112452 221.85601419 226.85173756 229.0768482 226.86064246 236.29770255 C226.8650292 239.69906438 226.87039478 243.10042467 226.87563133 246.50178528 C226.89263504 257.80825223 226.90713127 269.11471822 226.91438007 280.42119598 C226.9162899 283.35257468 226.91821025 286.28395337 226.92016602 289.21533203 C226.92064976 289.94389359 226.9211335 290.67245515 226.9216319 291.42309433 C226.92994022 303.2370241 226.95529442 315.05085289 226.98774669 326.86473852 C227.02079817 338.99560612 227.03882685 351.12642232 227.04202431 363.25733519 C227.04419052 370.06784557 227.05295588 376.87820841 227.07848549 383.68867493 C227.10242979 390.09086002 227.10603031 396.49285133 227.09572411 402.89507484 C227.09522685 405.24732153 227.10160288 407.59958098 227.11528015 409.95178795 C227.13288224 413.15775644 227.12595021 416.36275771 227.11274719 419.56872559 C227.12920106 420.97168688 227.12920106 420.97168688 227.14598733 422.40299082 C227.10396073 426.61649693 226.99468102 428.84493872 224.7195158 432.4917984 C222.21467197 434.81867445 221.2145014 435.37199984 217.8125 435.75 C213.87567812 435.36403707 212.39103321 434.20353321 209.625 431.4375 C208.66411617 428.55484851 208.50829059 426.76087729 208.52734375 423.76953125 C208.53217773 422.43051758 208.53217773 422.43051758 208.53710938 421.06445312 C208.54548828 420.13568359 208.55386719 419.20691406 208.5625 418.25 C208.56701172 417.30962891 208.57152344 416.36925781 208.57617188 415.40039062 C208.58795374 413.07936288 208.60440442 410.75846356 208.625 408.4375 C208.01503174 408.45844727 207.40506348 408.47939453 206.77661133 408.50097656 C203.99707706 408.58442861 201.2178068 408.63625011 198.4375 408.6875 C197.47779297 408.72101563 196.51808594 408.75453125 195.52929688 408.7890625 C191.23929975 408.84843962 188.42423103 408.87863401 184.6171875 406.77734375 C182.39286541 404.16485564 181.20643762 401.94035736 179.9375 398.75 C179.44636719 397.53441406 178.95523437 396.31882812 178.44921875 395.06640625 C178.0322876 394.00510498 178.0322876 394.00510498 177.60693359 392.92236328 C176.43186867 389.94876536 175.22568909 386.9884634 174.01953125 384.02734375 C173.09545512 381.74776007 172.17228311 379.46780969 171.25 377.1875 C170.79665283 376.06770752 170.34330566 374.94791504 169.8762207 373.79418945 C169.4555835 372.74320068 169.03494629 371.69221191 168.6015625 370.609375 C168.22080566 369.6615918 167.84004883 368.71380859 167.44775391 367.73730469 C166.625 365.4375 166.625 365.4375 166.625 363.4375 C164.645 363.4375 162.665 363.4375 160.625 363.4375 C160.3775 364.324375 160.13 365.21125 159.875 366.125 C157.61559689 372.11241825 154.10450874 375.25938493 148.625 378.4375 C141.27356372 381.36757246 132.86074497 381.66992654 125.15234375 379.85546875 C118.76929941 377.07636992 113.67779251 371.30279157 110.45703125 365.23828125 C107.56911003 357.68629946 107.2666608 349.6855957 110.5625 342.25 C114.25865401 335.6744059 119.57561887 331.24454067 126 327.4375 C134.85160118 324.99567899 142.57758089 326.09557088 150.625 330.4375 C155.91723191 333.84046202 159.63085565 338.45506696 161.625 344.4375 C162.57761719 344.46328125 163.53023437 344.4890625 164.51171875 344.515625 C165.76597656 344.57234375 167.02023437 344.6290625 168.3125 344.6875 C169.55386719 344.73390625 170.79523438 344.7803125 172.07421875 344.828125 C176.20791517 345.53753825 177.61419424 346.57562808 180.625 349.4375 C182.12304688 352.16381836 182.12304688 352.16381836 183.34375 355.27734375 C183.80136719 356.42396484 184.25898437 357.57058594 184.73046875 358.75195312 C185.42076172 360.54536133 185.42076172 360.54536133 186.125 362.375 C186.58519531 363.53580078 187.04539062 364.69660156 187.51953125 365.89257812 C188.90570281 369.40095883 190.26916867 372.91729179 191.625 376.4375 C191.86492676 377.05957336 192.10485352 377.68164673 192.35205078 378.3225708 C193.78036227 382.02602963 195.20336663 385.73146664 196.625 389.4375 C200.585 389.7675 204.545 390.0975 208.625 390.4375 C208.625 348.5275 208.625 306.6175 208.625 263.4375 C189.815 263.4375 171.005 263.4375 151.625 263.4375 C151.295 264.7575 150.965 266.0775 150.625 267.4375 C146.36032371 275.35311687 139.9168036 278.67356547 131.625 281.4375 C122.43931012 282.50738069 115.91657476 280.43152386 108.5859375 274.8984375 C102.97159048 269.8574706 100.25083445 263.90690263 99.2109375 256.48046875 C98.85109313 249.10365916 100.27615259 243.44112926 104.625 237.4375 C109.80025522 231.75922932 115.33628406 227.07440329 123.1875 226.12890625 C129.90669029 225.82094336 134.80612685 227.14659131 140.625 230.4375 C141.6975 231.035625 142.77 231.63375 143.875 232.25 C148.05755012 235.5770285 150.93167071 239.35751214 152.625 244.4375 C171.105 244.7675 189.585 245.0975 208.625 245.4375 C208.5782899 237.88914736 208.52777717 230.34245837 208.44120789 222.79472351 C208.40196066 219.27930808 208.36951832 215.76414224 208.35400391 212.24853516 C208.33584656 208.20695442 208.28585047 204.16629476 208.234375 200.125 C208.23253204 198.25110596 208.23253204 198.25110596 208.23065186 196.33935547 C208.11244146 189.26170448 207.52916797 184.4150379 203.625 178.4375 C198.21704217 174.13320703 194.02748098 173.28945552 187.30786133 173.32397461 C186.19529716 173.32375557 186.19529716 173.32375557 185.06025696 173.3235321 C182.60915195 173.32422866 180.15812298 173.33200903 177.70703125 173.33984375 C176.00738059 173.34170884 174.30772939 173.34313232 172.608078 173.34413147 C168.13480139 173.34794945 163.66155724 173.35777362 159.18829346 173.36883545 C154.62358031 173.37906501 150.05886193 173.3836324 145.49414062 173.38867188 C136.53774615 173.39939651 127.58137578 173.41646433 118.625 173.4375 C118.09100586 174.51563965 117.55701172 175.5937793 117.00683594 176.70458984 C116.29111092 178.14425311 115.57528524 179.58386633 114.859375 181.0234375 C114.5092334 181.73105225 114.1590918 182.43866699 113.79833984 183.16772461 C98.62143984 213.64420163 73.64477898 234.77702665 42.29296875 247.5546875 C39.79134566 248.38245737 37.61565059 248.78398577 35 249 C33.88625 249.144375 32.7725 249.28875 31.625 249.4375 C30.33334575 251.18589144 30.33334575 251.18589144 29.625 253.4375 C24.65875437 259.28014192 18.20584736 262.78657899 10.58203125 263.67578125 C3.45560211 263.92241541 -1.88908716 261.61619553 -7.875 257.875 C-11.6948578 257.20652489 -14.00852124 259.16234446 -17.19140625 261.17578125 C-22.1443046 264.03765275 -27.79532326 264.18677088 -33.375 263.4375 C-36.11424785 262.31832159 -38.59734435 261.02700494 -41.1484375 259.53125 C-43.55991965 258.14356408 -43.55991965 258.14356408 -47.375 258.4375 C-48.426875 259.0975 -49.47875 259.7575 -50.5625 260.4375 C-57.01493685 263.82139075 -65.30694741 263.56236551 -72.375 262.4375 C-75.14127727 261.31712121 -77.25438921 260.14458089 -79.61328125 258.3359375 C-80.19464844 258.03945313 -80.77601563 257.74296875 -81.375 257.4375 C-83.37754841 258.12234382 -83.37754841 258.12234382 -85.375 259.4375 C-93.25047136 262.8845913 -100.48252128 265.30300316 -108.94140625 262.625 C-116.74105658 259.19553543 -122.43874258 253.70280529 -125.96240234 245.94067383 C-127.79681226 240.89937488 -127.75519657 236.12502874 -127.66796875 230.8125 C-127.66372391 229.82499756 -127.65947906 228.83749512 -127.65510559 227.82006836 C-127.63842646 224.69225823 -127.60079435 221.5651126 -127.5625 218.4375 C-127.54743925 216.30599894 -127.53375329 214.1744877 -127.52148438 212.04296875 C-127.4885584 206.84092236 -127.43846767 201.63925867 -127.375 196.4375 C-128.30638794 195.98503906 -128.30638794 195.98503906 -129.2565918 195.5234375 C-141.0731477 189.46603971 -147.83448005 176.30377899 -152.375 164.4375 C-157.59209525 148.01238672 -154.98211216 130.53156374 -147.90625 115.26953125 C-143.11441414 106.19088144 -135.42148741 96.64586728 -126 92.125 C-120.93119175 89.28355308 -119.85589117 83.84738567 -117.984375 78.67578125 C-106.87762935 48.39935499 -81.40935485 23.98208751 -52.58398438 10.41455078 C-48.88761933 8.77962009 -45.13613933 7.36950306 -41.3125 6.0625 C-40.65403076 5.8358667 -39.99556152 5.6092334 -39.31713867 5.37573242 C-26.41042488 1.26813793 -13.4702478 -0.12391355 0 0 Z " fill="#EDE2D5" transform="translate(618.375,202.5625)"/>
<path d="M0 0 C6.81314443 4.74623544 11.29872355 10.11907508 14 18 C14.15927183 19.95402177 14.29520966 21.910058 14.41015625 23.8671875 C15.01161177 27.67767284 15.45765595 29.47221829 18.24584961 32.18554688 C21.25411102 34.12692638 24.29639564 35.77701163 27.5 37.375 C29.61473742 38.50752482 31.7293223 39.64033454 33.84375 40.7734375 C34.87757813 41.30291992 35.91140625 41.83240234 36.9765625 42.37792969 C40.73243842 44.39295227 44.25215538 46.70323611 47.76367188 49.11572266 C50.01332437 50.26422893 50.01332437 50.26422893 52.48754883 49.31689453 C54.9245525 48.0395456 57.34484816 46.76190064 59.73046875 45.390625 C60.61669922 44.88273438 61.50292969 44.37484375 62.41601562 43.8515625 C63.33060547 43.32304688 64.24519531 42.79453125 65.1875 42.25 C66.08275391 41.73695313 66.97800781 41.22390625 67.90039062 40.6953125 C69.70203605 39.65985419 71.49919803 38.61655508 73.29174805 37.56542969 C75.1294533 36.5031953 76.9862236 35.47340764 78.85864258 34.47363281 C84.07563162 31.79974636 84.07563162 31.79974636 87.23828125 27.140625 C87.26277344 26.18671875 87.28726563 25.2328125 87.3125 24.25 C88.12152586 15.64877768 90.93648029 9.59695059 97.25 3.625 C106.34457099 -3.74011159 114.28657324 -5.22509693 126 -4 C135.08372652 -1.85271803 141.31888057 3.05133244 146.3125 10.8125 C148.23488194 14.16279293 149.36005613 17.01085325 150 20.8125 C150.69318132 24.79136079 151.97492542 26.18578893 155.33984375 28.55859375 C161.06545055 33.52976766 163.65178512 40.6444598 164.23828125 47.98046875 C164.48581007 58.67631955 162.33899943 66.36291996 154.93359375 74.24609375 C150.77348684 78.01960487 146.00755855 80.53508205 141 83 C142.134375 83.33 143.26875 83.66 144.4375 84 C153.28082287 87.39646206 159.10804259 94.15448939 162.96484375 102.65234375 C165.64934451 111.33391791 165.13485388 120.60707356 161.27734375 128.84375 C158.53918781 133.46595819 155.46869959 137.02086694 151 140 C150.12541604 142.44206123 150.12541604 142.44206123 149.5625 145.25 C147.37017285 153.95115335 142.58078035 159.76495776 135.125 164.6875 C127.5166809 169.17626711 119.71124428 170.10634796 111 169 C101.42729434 165.95203198 94.67577648 160.26552809 89.625 151.65625 C86.26485268 144.46926822 85.7025346 136.44188724 87.54296875 128.72265625 C88.9056535 125.16160715 90.55679491 122.6724139 94 121 C97.91057032 120.59264892 100.71293745 120.76949327 104 123 C106.92325338 127.38488007 106.00344814 131.31177765 105.77734375 136.45703125 C106.10950969 141.7425489 107.74208523 144.88835439 111.6875 148.375 C115.70053181 150.34365712 118.61624053 150.87325886 123 150 C127.05210392 147.89890908 129.32717248 146.23171892 131 142 C131.1630842 140.37985209 131.26433048 138.75262262 131.3125 137.125 C131.77122748 131.74681576 133.06515312 129.67252376 137 126 C138.051875 125.319375 139.10375 124.63875 140.1875 123.9375 C143.38191658 121.73690191 144.13246709 120.7303915 145 117 C145.44789169 111.98361312 145.11805223 109.0089243 142 105 C139.08470686 101.86045354 135.7194506 101.04526876 131.56640625 100.6484375 C127.21102228 101.24506544 124.17336932 103.87664858 120.7734375 106.53125 C117.90259596 108.05158298 116.28896174 108.41114427 113.10693359 107.74365234 C108.14319507 105.99167696 103.65955009 103.19804688 99.125 100.5625 C98.00875244 99.92505859 96.89250488 99.28761719 95.74243164 98.63085938 C92.48725222 96.76686851 89.24178083 94.88717769 86 93 C85.19643066 92.53319824 84.39286133 92.06639648 83.56494141 91.58544922 C80.16720456 89.60699072 76.77951973 87.61224216 73.3984375 85.60546875 C68.13501097 82.48175541 62.84921245 79.39659294 57.5625 76.3125 C56.55340576 75.72355957 55.54431152 75.13461914 54.50463867 74.52783203 C48.0355241 70.75676328 41.55211296 67.01132205 35.06054688 63.27905273 C25.86302922 57.98912352 16.67987661 52.67716956 7.5625 47.25 C6.73395508 46.76063965 5.90541016 46.2712793 5.05175781 45.76708984 C4.2934668 45.31285645 3.53517578 44.85862305 2.75390625 44.390625 C2.09720947 43.99907227 1.4405127 43.60751953 0.76391602 43.20410156 C-1.1003542 41.93149524 -2.56995139 40.75072784 -4 39 C-4.17119249 35.22059664 -3.92899083 31.53746984 -3.71484375 27.76171875 C-4.04990413 23.3416757 -5.20878427 21.38861622 -8 18 C-12.365558 15.089628 -15.79500079 14.3493751 -21 15 C-24.70390021 17.02666238 -26.65363011 18.48044516 -29 22 C-29.16909702 23.76581641 -29.26589922 25.5392178 -29.3125 27.3125 C-29.7465957 32.98568171 -30.80718308 35.17987792 -35 39 C-36.051875 39.680625 -37.10375 40.36125 -38.1875 41.0625 C-41.38191658 43.26309809 -42.13246709 44.2696085 -43 48 C-43.44665816 53.00257141 -43.19887298 56.05472333 -40 60 C-36.76200632 62.72285832 -34.70361133 63.8994841 -30.5 64.5 C-25.57005524 63.79572218 -22.68184382 61.47161334 -19 58.25 C-16.1739186 56.48369912 -14.30311139 56.73208621 -11 57 C-8.07836914 58.23413086 -8.07836914 58.23413086 -5.03515625 59.96484375 C-3.91318848 60.59543701 -2.7912207 61.22603027 -1.63525391 61.87573242 C-0.44410271 62.56258397 0.74681062 63.24984819 1.9375 63.9375 C3.16695868 64.63544144 4.39694239 65.3324588 5.62744141 66.02856445 C12.91450629 70.16483402 20.1353077 74.40688673 27.2890625 78.76953125 C32.769103 82.09246993 38.35801326 85.22884085 43.92724609 88.39892578 C50.13142895 91.93078083 56.32220569 95.48467799 62.5 99.0625 C63.2827832 99.51544434 64.06556641 99.96838867 64.87207031 100.43505859 C66.30035386 101.26283524 67.72723429 102.09304021 69.15234375 102.92626953 C70.72724924 103.84149606 72.31546258 104.73375937 73.90625 105.62109375 C76 107 76 107 78 110 C78.46797583 114.21178243 78.46565795 116.28599114 76.125 119.875 C73.6719826 122.3280174 72.74009928 122.91166209 69.31640625 123.3203125 C64.46036356 122.85129542 61.08129414 120.30111925 57.12304688 117.66796875 C55.13665462 116.37738676 55.13665462 116.37738676 52 115 C48.61400302 116.05122602 45.58658521 117.6834712 42.48828125 119.390625 C41.65216309 119.85041748 40.81604492 120.31020996 39.95458984 120.78393555 C39.0827002 121.26773682 38.21081055 121.75153809 37.3125 122.25 C36.41998535 122.74218018 35.5274707 123.23436035 34.60791016 123.74145508 C29.21568665 126.72800063 23.89183893 129.78184551 18.6796875 133.07421875 C17 134 17 134 15 134 C15.061875 135.134375 15.12375 136.26875 15.1875 137.4375 C15.14197097 146.05766384 11.45797866 153.4578179 6 160 C-1.95672001 167.56135504 -9.74435524 169.60656964 -20.59375 169.3515625 C-25.37922443 168.85764885 -28.91862686 167.48147487 -33 165 C-33.62390625 164.649375 -34.2478125 164.29875 -34.890625 163.9375 C-41.86033331 159.57385654 -45.66946779 153.14683081 -47.5 145.25 C-48.73731238 140.00233985 -50.62339659 138.23868653 -55 135 C-61.72106319 126.0936731 -62.75621396 117.93601729 -62 107 C-60.0880724 97.90089932 -54.19712333 91.45988667 -47 86 C-45.0230222 84.81548165 -43.1264246 83.90373045 -41 83 C-43.02980739 81.46616365 -45.06578911 79.95382801 -47.1484375 78.4921875 C-54.16282684 73.39752577 -59.30434662 67.35289904 -62 59 C-63.20155048 48.45177321 -62.40304482 39.82166219 -56 31 C-54.24504407 29.40424893 -52.42616915 28.02188321 -50.5234375 26.609375 C-47.91994537 23.85901921 -47.60292051 20.42093071 -46.7890625 16.8125 C-44.10195568 7.23469352 -37.02175507 2.07454392 -28.9375 -2.875 C-19.88057861 -6.34405016 -8.184369 -4.96958255 0 0 Z " fill="#EDE2D5" transform="translate(549,474)"/>
<path d="M0 0 C9.57 0 19.14 0 29 0 C37.72386895 9.33726599 37.72386895 9.33726599 40.8359375 15.74267578 C41.99566254 17.99158889 43.30580036 19.93574442 44.8125 21.96484375 C47 25 47 25 47 27 C51.91902282 22.53071641 55.45194894 17.28115939 59.1875 11.8125 C60.42923239 10.00530178 61.67264275 8.19925502 62.91796875 6.39453125 C63.46219482 5.59893799 64.0064209 4.80334473 64.56713867 3.98364258 C66 2 66 2 68 0 C77.57 0 87.14 0 97 0 C97 28.05 97 56.1 97 85 C87.43 85 77.86 85 68 85 C67.67 70.81 67.34 56.62 67 42 C62.57236073 47.69830298 62.57236073 47.69830298 58.14550781 53.3972168 C55.12256044 57.28579466 52.09218715 61.16600027 49 65 C45.47113184 63.82371061 44.86508534 62.83534656 42.71484375 59.88671875 C42.10189453 59.05076172 41.48894531 58.21480469 40.85742188 57.35351562 C39.90706055 56.03383789 39.90706055 56.03383789 38.9375 54.6875 C37.98133789 53.38522461 37.98133789 53.38522461 37.00585938 52.05664062 C31.87523309 45.01216639 31.87523309 45.01216639 30 41 C29.34 41 28.68 41 28 41 C28 55.52 28 70.04 28 85 C18.76 85 9.52 85 0 85 C0 56.95 0 28.9 0 0 Z " fill="#EEE3D6" transform="translate(783,822)"/>
<path d="M0 0 C9.57 0 19.14 0 29 0 C37.72386895 9.33726599 37.72386895 9.33726599 40.8359375 15.74267578 C41.99566254 17.99158889 43.30580036 19.93574442 44.8125 21.96484375 C47 25 47 25 47 27 C51.91902282 22.53071641 55.45194894 17.28115939 59.1875 11.8125 C60.42923239 10.00530178 61.67264275 8.19925502 62.91796875 6.39453125 C63.46219482 5.59893799 64.0064209 4.80334473 64.56713867 3.98364258 C66 2 66 2 68 0 C77.57 0 87.14 0 97 0 C97 28.05 97 56.1 97 85 C87.43 85 77.86 85 68 85 C67.67 70.81 67.34 56.62 67 42 C62.57236073 47.69830298 62.57236073 47.69830298 58.14550781 53.3972168 C55.12256044 57.28579466 52.09218715 61.16600027 49 65 C45.47113184 63.82371061 44.86508534 62.83534656 42.71484375 59.88671875 C42.10189453 59.05076172 41.48894531 58.21480469 40.85742188 57.35351562 C39.90706055 56.03383789 39.90706055 56.03383789 38.9375 54.6875 C37.98133789 53.38522461 37.98133789 53.38522461 37.00585938 52.05664062 C31.87523309 45.01216639 31.87523309 45.01216639 30 41 C29.34 41 28.68 41 28 41 C28 55.52 28 70.04 28 85 C18.76 85 9.52 85 0 85 C0 56.95 0 28.9 0 0 Z " fill="#EEE3D6" transform="translate(674,822)"/>
<path d="M0 0 C10.828125 -0.0825 21.65625 -0.165 32.8125 -0.25 C36.21022705 -0.28641602 39.6079541 -0.32283203 43.10864258 -0.36035156 C45.82893239 -0.37204392 48.54922925 -0.38223444 51.26953125 -0.390625 C51.96141037 -0.40107849 52.65328949 -0.41153198 53.36613464 -0.42230225 C62.78863577 -0.55733928 72.70559647 -0.60720706 80.19612122 5.91107178 C87.1875418 13.28057162 88.52184635 19.64980641 88.2890625 29.6171875 C87.73380389 36.11521398 85.68234211 41.31765789 81 46 C74.05248619 51 74.05248619 51 71 51 C72.83201006 54.06329338 74.66565266 57.12560567 76.5 60.1875 C77.04301758 61.09411377 77.58603516 62.00072754 78.14550781 62.93481445 C81.93174812 69.2461479 85.77045234 75.52102845 89.671875 81.76171875 C91 84 91 84 91 85 C64.57671098 88.49507939 64.57671098 88.49507939 57.3203125 82.95361328 C53.07034154 77.76082596 50.43328899 71.86593957 48.04931641 65.63232422 C47.09463389 63.2373994 46.01664071 61.12037657 44.69921875 58.91015625 C43 56 43 56 43 54 C38.38 54 33.76 54 29 54 C29 64.23 29 74.46 29 85 C19.43 85 9.86 85 0 85 C0 56.95 0 28.9 0 0 Z " fill="#EEE3D6" transform="translate(574,822)"/>
<path d="M0 0 C10.21169296 6.6936402 18.60249982 16.32913627 21.25 28.4921875 C22.53870379 41.80172454 21.24856296 53.63209694 13.4375 64.8671875 C5.63468531 74.2980704 -4.40072355 81.08193062 -16.75 82.4921875 C-29.06366347 83.59802621 -40.22390837 81.24127297 -49.9140625 73.20703125 C-57.37349082 66.23960777 -65.01710682 57.25248192 -65.91113281 46.56616211 C-66.22394771 30.38890308 -64.99958996 19.23101197 -53.38671875 7.00390625 C-48.28024957 2.15156929 -43.41502998 -1.22704869 -36.75 -3.5078125 C-35.81800781 -3.86230469 -34.88601563 -4.21679688 -33.92578125 -4.58203125 C-22.66569924 -7.86449058 -10.13586983 -5.55745135 0 0 Z " fill="#EEE3D6" transform="translate(461.75,825.5078125)"/>
<path d="M0 0 C9.57 0 19.14 0 29 0 C29 20.46 29 40.92 29 62 C43.52 62 58.04 62 73 62 C73 69.59 73 77.18 73 85 C48.91 85 24.82 85 0 85 C0 56.95 0 28.9 0 0 Z " fill="#ECE2D5" transform="translate(493,822)"/>
<path d="M0 0 C9.57 0 19.14 0 29 0 C29 20.46 29 40.92 29 62 C43.52 62 58.04 62 73 62 C73 69.59 73 77.18 73 85 C48.91 85 24.82 85 0 85 C0 56.95 0 28.9 0 0 Z " fill="#ECE2D5" transform="translate(319,822)"/>
<path d="M0 0 C5.90862576 3.99008791 11.12541941 9.2934331 12.9609375 16.32421875 C14.01890806 25.07317532 14.07340805 32.82835814 8.73046875 40.2734375 C3.16807032 46.71992575 -2.2913647 50.6087377 -10.86328125 51.67578125 C-20.18501721 52.12933562 -26.99669191 49.33444781 -33.9140625 43.13671875 C-39.66690199 36.83987553 -41.77855839 29.421805 -41.421875 20.9921875 C-40.36973363 13.65940633 -36.60450401 7.17892205 -31.0390625 2.32421875 C-22.04086931 -4.23350507 -9.93478383 -5.26285017 0 0 Z " fill="#ECE2D5" transform="translate(541.0390625,323.67578125)"/>
<path d="M0 0 C7.33278776 3.32899567 11.86572717 8.56791002 15.984375 15.34375 C18.24440351 23.45326406 18.22036745 31.70603914 14.22265625 39.234375 C9.6586105 46.6945428 4.35722355 50.21612669 -3.953125 53.15625 C-11.95115352 54.70425552 -18.27823098 52.90619112 -25.31640625 48.99609375 C-29.22827749 46.26647693 -31.63529655 43.28767755 -33.953125 39.15625 C-34.571875 38.104375 -35.190625 37.0525 -35.828125 35.96875 C-38.02950417 28.50852059 -38.19467007 20.95426357 -34.953125 13.78125 C-27.53515844 0.85759721 -14.33133794 -4.09466798 0 0 Z " fill="#EDE2D5" transform="translate(627.953125,321.84375)"/>
<path d="M0 0 C4.65110869 1.73276598 7.55225924 3.64846087 10 8 C10.35032105 10.80256844 10.50552054 13.59139564 10.67578125 16.41015625 C11.12525316 20.00051618 12.32065663 21.61031537 15 24 C16.010625 24.66 17.02125 25.32 18.0625 26 C21.26069313 28.1774932 22.54250748 29.4372405 24 33 C24.58075783 36.96851185 24.40913488 40.05252975 22.8125 43.75 C19.47623154 47.89157464 16.80656738 50.11771467 11.5 50.9375 C7.40709921 51.22210568 5.26237959 50.62802801 2 48 C1.21625 47.278125 0.4325 46.55625 -0.375 45.8125 C-3.85064777 43.41264797 -5.82811947 43.65110313 -10 44 C-12.98091855 45.26041701 -12.98091855 45.26041701 -15.7578125 47.1328125 C-16.79550781 47.77347656 -17.83320312 48.41414062 -18.90234375 49.07421875 C-21.05988146 50.44719729 -23.21612251 51.82221547 -25.37109375 53.19921875 C-26.40621094 53.83730469 -27.44132813 54.47539063 -28.5078125 55.1328125 C-29.44254395 55.72980957 -30.37727539 56.32680664 -31.34033203 56.94189453 C-34 58 -34 58 -36.62133789 57.30078125 C-37.40629639 56.87152344 -38.19125488 56.44226563 -39 56 C-39.61141846 55.68272949 -40.22283691 55.36545898 -40.8527832 55.03857422 C-41.41312256 54.7138916 -41.97346191 54.38920898 -42.55078125 54.0546875 C-43.16630859 53.70019531 -43.78183594 53.34570312 -44.41601562 52.98046875 C-45.04185547 52.61566406 -45.66769531 52.25085938 -46.3125 51.875 C-46.95767578 51.50246094 -47.60285156 51.12992188 -48.26757812 50.74609375 C-49.84675945 49.83367787 -51.42361864 48.91724491 -53 48 C-50.91424446 45.75191161 -48.92345502 44.24997159 -46.2265625 42.80078125 C-45.48986328 42.39996338 -44.75316406 41.99914551 -43.99414062 41.58618164 C-43.21232422 41.1658667 -42.43050781 40.74555176 -41.625 40.3125 C-35.8582679 37.15671278 -30.11881936 33.97618861 -24.5 30.5625 C-23.4790625 29.94503906 -22.458125 29.32757812 -21.40625 28.69140625 C-18.78029648 27.06230518 -18.78029648 27.06230518 -17 24 C-16.96050657 21.72912783 -17.01387031 19.45599517 -17.125 17.1875 C-17.17896018 12.82122226 -17.17704082 10.39493721 -15.375 6.375 C-10.50253399 1.50253399 -7.05444069 -0.88180509 0 0 Z " fill="#21801B" transform="translate(671,488)"/>
<path d="M0 0 C3.10675433 1.60424342 5.45928151 3.31597169 8.0390625 5.6640625 C9.27632195 6.47549652 10.5239005 7.271859 11.7890625 8.0390625 C12.5315625 8.5753125 13.2740625 9.1115625 14.0390625 9.6640625 C10.98368211 13.02978382 7.87845594 15.05148242 3.8828125 17.1953125 C3.29866577 17.51310669 2.71451904 17.83090088 2.1126709 18.1583252 C-0.36706134 19.50709679 -2.85550791 20.83943916 -5.34326172 22.17333984 C-7.16686004 23.15417489 -8.98579841 24.14327964 -10.8046875 25.1328125 C-12.43180664 26.00583008 -12.43180664 26.00583008 -14.09179688 26.89648438 C-16.86105576 28.60252882 -18.89573175 30.15765792 -20.9609375 32.6640625 C-21.33242528 35.96908767 -21.33242528 35.96908767 -21.0234375 39.5390625 C-20.70525297 44.89613295 -21.12537218 48.05376688 -23.9609375 52.6640625 C-27.63796327 56.06531133 -30.24716313 57.50238567 -35.2734375 57.9765625 C-40.52913931 57.53116404 -43.38823695 55.50791832 -46.7734375 51.5390625 C-47.95496903 48.67851247 -48.18999024 46.71826807 -48.3984375 43.6640625 C-48.74855069 39.1260569 -49.50625061 36.83863964 -52.9609375 33.6640625 C-54.476875 32.705 -54.476875 32.705 -56.0234375 31.7265625 C-59.50666838 29.28088976 -60.57461895 27.66898277 -61.9609375 23.6640625 C-62.67581689 19.25122679 -62.31971708 16.39542088 -60.3359375 12.3515625 C-56.86847231 8.42785189 -53.87190024 7.03876108 -48.7734375 6.0390625 C-43.79431472 6.85531214 -40.79008245 9.22383992 -36.8046875 12.23046875 C-33.91082956 13.68932296 -32.20791442 14.09796186 -29.02294922 13.44458008 C-25.30805722 12.03841033 -22.10093539 9.79092359 -18.77514648 7.64624023 C-6.02064121 -0.51062637 -6.02064121 -0.51062637 0 0 Z " fill="#21801B" transform="translate(566.9609375,567.3359375)"/>
<path d="M0 0 C4.60669463 2.4569038 7.76568496 5.55480742 10.12890625 10.28125 C10.71948369 15.95987925 10.4226153 20.45047672 7.12890625 25.28125 C3.19257493 29.24984633 -0.03177445 31.13048612 -5.68359375 31.59375 C-10.07470369 31.52929334 -12.48264321 30.13062886 -15.87109375 27.28125 C-20.17336965 22.51386319 -21.23391878 18.84377705 -21.15234375 12.5625 C-20.56592987 7.80603189 -17.7312591 5.05749678 -14.30859375 1.96875 C-9.94085508 -1.05506908 -5.08207399 -1.95219544 0 0 Z " fill="#22801C" transform="translate(444.87109375,848.71875)"/>
<path d="M0 0 C3.93260944 -0.07421454 7.86494722 -0.12863136 11.7980957 -0.16479492 C13.79327701 -0.18728333 15.78826213 -0.22540198 17.78320312 -0.26367188 C19.03681641 -0.27333984 20.29042969 -0.28300781 21.58203125 -0.29296875 C22.73936768 -0.3086792 23.8967041 -0.32438965 25.08911133 -0.34057617 C28 0 28 0 29.9128418 1.3581543 C31 3 31 3 30.8125 5.5625 C30 8 30 8 28 10 C25.20263672 10.22705078 25.20263672 10.22705078 21.6796875 10.1953125 C19.79443359 10.18564453 19.79443359 10.18564453 17.87109375 10.17578125 C16.55238281 10.15902344 15.23367188 10.14226563 13.875 10.125 C12.53516279 10.11496983 11.19531848 10.10584404 9.85546875 10.09765625 C6.57013427 10.07402075 3.28515535 10.04107234 0 10 C0 6.7 0 3.4 0 0 Z " fill="#2F8627" transform="translate(603,844)"/>
<path d="M0 0 C3.62771552 0.88320639 4.97802955 2.36925437 6.94140625 5.47265625 C7.31483975 8.70141973 6.98023166 11.39635559 5.94140625 14.47265625 C3.35549078 17.50187152 1.85185357 18.32091503 -2.05859375 18.97265625 C-5.75062791 18.35731722 -7.39876243 17.05649239 -10.05859375 14.47265625 C-11.62794969 11.33394437 -11.41060478 8.93409803 -11.05859375 5.47265625 C-8.01246574 0.99865573 -5.26114346 -0.38934458 0 0 Z " fill="#E9E0D1" transform="translate(829.05859375,692.52734375)"/>
<path d="M0 0 C3.5060303 0.86943897 4.94966563 2.56083702 6.9375 5.48046875 C7.62901325 9.78321784 7.45307405 11.68992187 5.0625 15.35546875 C2.55083682 17.86713193 1.64365837 18.40200671 -1.875 18.79296875 C-5.98171721 18.39034942 -7.37980366 17.6230559 -10.0625 14.48046875 C-11.10132541 11.40416809 -11.4359335 8.70923223 -11.0625 5.48046875 C-8.16397012 0.89892152 -5.23518149 -0.36685931 0 0 Z " fill="#25821F" transform="translate(620.0625,338.51953125)"/>
<path d="M0 0 C3.5060303 0.86943897 4.94966563 2.56083702 6.9375 5.48046875 C7.62901325 9.78321784 7.45307405 11.68992187 5.0625 15.35546875 C2.55083682 17.86713193 1.64365837 18.40200671 -1.875 18.79296875 C-5.7932645 18.40882517 -7.27543267 17.18790558 -10.0625 14.48046875 C-11.63185594 11.34175687 -11.41451103 8.94191053 -11.0625 5.48046875 C-8.01136975 0.99912119 -5.26455839 -0.36891792 0 0 Z " fill="#E9E0D2" transform="translate(375.0625,692.51953125)"/>
<path d="M0 0 C2.75025718 1.7569363 3.35449951 2.98324911 5 6 C5.06842425 9.96860664 4.61465514 12.10165788 2.375 15.375 C-0.89834212 17.61465514 -3.03139336 18.06842425 -7 18 C-11.30645669 15.65102362 -11.30645669 15.65102362 -13 13 C-13.99950991 8.70439636 -13.72155719 5.28625412 -11.5625 1.4375 C-7.71374588 -0.72155719 -4.29560364 -0.99950991 0 0 Z " fill="#25821E" transform="translate(450,575)"/>
<path d="M0 0 C3.53494505 0.9336246 4.94397547 2.52143196 6.9375 5.51171875 C7.69358333 8.37444649 7.74894575 10.65727127 6.9375 13.51171875 C4.06027073 16.79998078 2.16585983 18.26103307 -2.125 19.13671875 C-6.18089195 18.27376302 -7.60046371 16.81788177 -10.0625 13.51171875 C-11.1875 10.07421875 -11.1875 10.07421875 -11.0625 6.51171875 C-8.2164831 1.46233393 -5.69622849 -0.48547402 0 0 Z " fill="#E9E0D2" transform="translate(411.0625,692.48828125)"/>
<path d="M0 0 C3.53494505 0.9336246 4.94397547 2.52143196 6.9375 5.51171875 C7.69402776 8.37612921 7.74232815 10.65457883 6.9375 13.51171875 C4.375 16.57421875 4.375 16.57421875 0.9375 18.51171875 C-3.03110664 18.580143 -5.16415788 18.12637389 -8.4375 15.88671875 C-10.67715514 12.61337663 -11.13092425 10.48032539 -11.0625 6.51171875 C-8.2164831 1.46233393 -5.69622849 -0.48547402 0 0 Z " fill="#24811D" transform="translate(529.0625,338.48828125)"/>
<path d="M0 0 C2.875 1.5625 2.875 1.5625 5 4 C6.14009771 7.91908586 6.40888632 10.03158504 4.8125 13.8125 C2.85980888 16.16919618 1.94024566 17.18326509 -1 18 C-4.78825503 17.86470518 -7.23184073 17.49240979 -10.4375 15.4375 C-12.25759307 12.59815481 -12.63409202 10.33922437 -12.4453125 6.97265625 C-10.97112337 0.44225703 -5.94328138 -0.95517022 0 0 Z " fill="#EAE1D2" transform="translate(794,693)"/>
<path d="M0 0 C2.09375 0.77734375 2.09375 0.77734375 4.65625 3.52734375 C6.79443545 8.36150217 6.79443545 8.36150217 6.09375 11.77734375 C4.54482319 14.61704289 3.35465187 16.34563622 0.22265625 17.41796875 C-3.41282367 18.05022613 -5.42306238 17.99323609 -8.84375 16.46484375 C-10.90625 14.77734375 -10.90625 14.77734375 -11.90625 12.77734375 C-12.3792916 7.9680875 -12.57464974 5.83384656 -9.96875 1.71484375 C-6.25192224 -0.63661871 -4.2536834 -0.74439459 0 0 Z " fill="#25821F" transform="translate(448.90625,502.22265625)"/>
<path d="M0 0 C4.44999917 1.53727244 6.04472012 3.14968395 8.4375 7.1875 C8.50511916 11.10941148 7.98659835 13.29521518 5.9375 16.625 C2.18211475 18.97211578 -1.2596591 19.07964866 -5.5625 18.1875 C-8.2774409 16.06852174 -9.24042702 14.60120088 -10.00390625 11.25 C-10.20202224 9.02435653 -10.13251086 7.35006027 -9.5625 5.1875 C-6.47565864 1.49834813 -4.83336037 0.25438739 0 0 Z " fill="#24811E" transform="translate(446.5625,428.8125)"/>
<path d="M0 0 C3.5060303 0.86943897 4.94966563 2.56083702 6.9375 5.48046875 C7.5625 8.98046875 7.5625 8.98046875 6.9375 12.48046875 C4.50896618 15.76613215 2.81475186 17.18805146 -1.0625 18.48046875 C-4.71210575 18.48046875 -6.23669927 17.75680823 -9.0625 15.48046875 C-11.38356991 12.27518174 -11.61655751 9.35887132 -11.0625 5.48046875 C-7.96739703 1.03125823 -5.27006603 -0.36930387 0 0 Z " fill="#25821E" transform="translate(747.0625,447.51953125)"/>
<path d="M0 0 C3.48825925 0.92832706 4.94573896 2.59022598 6.9375 5.515625 C7.7253128 9.9273767 7.46725133 11.73755274 4.9375 15.453125 C0.78669686 18.30680216 -1.0926078 18.2256096 -6.0625 17.515625 C-9.35541844 15.40477985 -9.95025952 13.87215358 -11.125 10.140625 C-11.0625 6.515625 -11.0625 6.515625 -9.125 3.078125 C-5.74382191 0.24897599 -4.27427914 -0.35618993 0 0 Z " fill="#23811C" transform="translate(756.0625,547.484375)"/>
<path d="M0 0 C0.54527344 0.40734375 1.09054687 0.8146875 1.65234375 1.234375 C-1.09630872 4.11314119 -3.55144922 5.86774047 -7.34765625 7.234375 C-9.78515625 6.046875 -9.78515625 6.046875 -12.34765625 4.234375 C-14.66457079 3.51271309 -16.99614548 2.83377971 -19.34765625 2.234375 C-11.93940788 -2.70445725 -7.97902857 -5.29207365 0 0 Z " fill="#2B8524" transform="translate(543.34765625,554.765625)"/>
<path d="M0 0 C1.07765625 0.48210938 2.1553125 0.96421875 3.265625 1.4609375 C4.08546875 1.84507812 4.9053125 2.22921875 5.75 2.625 C-1.95540852 7.76193901 -1.95540852 7.76193901 -6.25 8.625 C-9.37834245 7.4944604 -11.74119477 5.78517017 -14.25 3.625 C-9.18113655 -1.80592512 -7.02121418 -3.20533691 0 0 Z " fill="#2A8423" transform="translate(669.25,553.375)"/>
</svg>
