<?xml version="1.0" encoding="UTF-8"?>
<svg id="Capa_1" data-name="Capa 1" xmlns="http://www.w3.org/2000/svg" viewBox="0 0 250 100">
  <defs>
    <style>
      .cls-1 {
        fill: #e5e5e5;
      }

      .cls-2 {
        fill: #10b981;
      }
    </style>
  </defs>
  <g>
    <path class="cls-2" d="M13.31,51.25c.32-.17.53-.51.53-.89,0-.56-.45-1.01-1.01-1.01s-1.01.45-1.01,1.01c0,.38.21.72.53.89v14.58l6.93,4,.48-.83-6.45-3.72v-14.02Z"/>
    <rect class="cls-2" x="49.09" y="70.52" width="11.53" height=".96" transform="translate(-27.95 36.45) rotate(-29.66)"/>
    <rect class="cls-2" x="17.64" y="29.65" width="11.56" height=".96" transform="translate(-11.92 15.74) rotate(-29.99)"/>
    <path class="cls-2" d="M56.77,61.55v-21.27l-14.7-8.49c-.1-2.84-1.7-4.57-3.26-6.24l-.35-.37-.35.37c-1.54,1.64-3.1,3.35-3.25,6.1l-14.94,8.62v21.27l15.05,8.69c-.57,1.17-.37,2.36.61,3.41.71.77,1.76,1.19,2.88,1.18.02,0,.04,0,.06,0,1.09,0,2.12-.43,2.82-1.18,1.01-1.08,1.19-2.31.56-3.51l14.87-8.59ZM55.81,60.99l-14.46,8.35c-.1-.11-.19-.23-.29-.33-.27-.29-.58-.62-.6-.85-.11-1.24-.09-2.49-.07-3.82,0-.37.01-.74.01-1.12.19,0,.38,0,.57,0,1.02,0,2.07,0,2.99-.33,1.08-.39,1.82-1.18,2.28-2.41l.2-.54c.17-.04.32-.09.48-.16.89-.36,1.6-1.07,2.77-2.43l.68-.79h-1.91v-11.69l-6.47-3.79c0-2.73.03-5.46.1-8.18l13.73,7.93v20.17ZM42,48.3c-.01-2.01-.02-4.06-.02-6.11l5.51,3.23v11.14h-5.47v-1.85c0-2.14-.01-4.31-.02-6.41ZM38.46,26.58c1.46,1.57,2.74,3.14,2.67,5.69-.16,5.34-.13,10.78-.1,16.03.01,2.1.02,4.27.02,6.4v2.81h7.2c-1.52,1.68-2,1.66-4.8,1.59-.66-.02-1.47-.04-2.45-.04-.52,0-1.09,0-1.72.02v-13.66h-.82s-.82,0-.82,0v13.66c-1.8-.04-3.15,0-4.17.02-2.8.07-3.29.08-4.8-1.59h7.2v-2.81c0-2.13.01-4.3.02-6.4.03-5.26.06-10.69-.1-16.03-.07-2.56,1.21-4.12,2.67-5.69ZM29.21,56.56v-11.14l5.74-3.33c0,2.08,0,4.16-.02,6.2-.01,2.1-.02,4.27-.02,6.41v1.85h-5.7ZM20.89,40.83l13.96-8.06c.07,2.73.1,5.48.11,8.22l-6.7,3.88v11.69h-1.69l.68.79c1.17,1.36,1.88,2.07,2.77,2.43.16.06.32.11.48.15l.2.54c.46,1.23,1.2,2.02,2.28,2.41.92.33,1.97.33,2.99.33.19,0,.38,0,.57,0,0,.38,0,.75.01,1.12.02,1.32.04,2.57-.07,3.82-.02.23-.33.56-.6.85-.13.13-.25.28-.37.42l-14.61-8.44v-20.17ZM40.64,72.99c-.52.56-1.29.87-2.12.87-.02,0-.03,0-.05,0h0s0,0,0,0c-.85.01-1.64-.31-2.17-.87-.86-.92-.89-1.86-.12-2.87.11-.15.25-.3.4-.46.4-.42.81-.86.86-1.42.11-1.29.09-2.56.07-3.91,0-.51-.02-1.04-.02-1.57v-.46l-.46-.02c-.36-.01-.72-.01-1.07-.01-1.77,0-3.21,0-4.06-1.47,2.04,0,4.2-.02,6.57-.03,2.37.02,4.53.03,6.57.03-.85,1.47-2.29,1.47-4.06,1.47-.35,0-.71,0-1.07.01l-.46.02v.46c0,.53,0,1.06-.02,1.57-.02,1.35-.04,2.62.07,3.91.05.56.46,1,.86,1.42.15.16.29.31.4.46.77,1.02.73,1.96-.12,2.87Z"/>
    <path class="cls-2" d="M38.85,69.5l-.36-.45-.02.03-.02-.03-.36.45c-.18.22-.37.42-.55.61-.43.45-.8.85-.85,1.36-.03.3.14.62.5.97.16.15.68.62,1.18.62.03,0,.06,0,.1,0,0,0,0,0,0,0,0,0,0,0,0,0,.03,0,.06,0,.1,0,.5,0,1.02-.47,1.18-.62.36-.35.53-.67.5-.97-.05-.51-.42-.91-.85-1.36-.18-.19-.37-.39-.55-.61ZM38.57,72.09s0,0,0,0l-.11-.02-.11.02s0,0,0,0c-.18-.04-.6-.39-.7-.58.05-.19.31-.46.58-.74.07-.07.14-.15.22-.24v.02s.03-.02.03-.02c.08.08.15.16.22.24.27.29.52.56.58.74-.1.19-.52.54-.7.58Z"/>
    <polygon class="cls-2" points="39.1 43.15 39.1 30.13 38.46 30.13 37.83 30.13 37.83 43.15 38.46 43.15 39.1 43.15"/>
    <path class="cls-2" d="M64.35,42.95h.06v-7.1l-15.9-9.13-.48.83,15.42,8.85v6.54h.06c-.35.16-.6.52-.6.93,0,.57.46,1.03,1.03,1.03s1.03-.46,1.03-1.03c0-.41-.25-.77-.6-.93Z"/>
  </g>
  <g>
    <path class="cls-2" d="M90.09,55.91c.02-3.98.02-7.96-.01-11.8,0-.09.01-.2.02-.31.05-.38.1-.82-.44-.94-.51-.12-.71.3-.89.66-.04.08-.08.16-.12.23l-.45.78c-1.54,2.63-3.12,5.35-4.64,8.06-.32.57-.56.82-.78.82h0c-.23,0-.47-.25-.78-.81-1.57-2.82-3.23-5.65-4.84-8.39l-.11-.19c-.06-.1-.11-.22-.17-.35-.19-.43-.41-.92-.98-.8-.61.13-.54.65-.48,1.1.02.14.04.28.04.4-.03,2.44-.02,4.91-.02,7.31,0,.77,0,1.54,0,2.31,0,.19,0,.37,0,.56,0,.58,0,1.18.01,1.78,0,.05,0,.1,0,.16,0,.3-.01.65.38.69.03,0,.05,0,.08,0,.44,0,.5-.43.55-.78v-.04c.04-.25.04-.52.03-.77,0-.08,0-.17,0-.25,0-.76,0-1.51,0-2.27,0-1.88,0-3.83.01-5.75,0-.09,0-.18-.01-.27-.03-.42-.05-.85.46-1.2.1.16.19.31.28.46.2.32.38.63.56.93.51.88,1.03,1.79,1.54,2.66.83,1.44,1.7,2.94,2.55,4.4.38.64.63.99.89.99h0c.26,0,.5-.34.86-.95.74-1.27,1.49-2.56,2.21-3.82.42-.73.86-1.49,1.29-2.23.32-.55.64-1.09,1-1.71.17-.29.35-.59.54-.92.39.71.38,1.21.37,1.65,0,.08,0,.16,0,.24,0,1.26.01,2.53.02,3.77,0,1.49,0,3.03.02,4.54,0,.06,0,.11,0,.17,0,.36,0,.76.2.97.09.09.22.14.38.14,0,0,.01,0,.02,0,.15,0,.26-.05.33-.13.16-.18.12-.5.09-.79-.01-.11-.02-.22-.02-.31Z"/>
    <path class="cls-2" d="M123.98,50.25c-.09-.08-.21-.11-.37-.1-.35.03-.48.36-.49.65,0,.24-.02.48-.03.71-.03.68-.06,1.37,0,2.05.13,1.26-.43,2.02-1.76,2.39-.98.27-2.27.54-3.59.26-2.7-.59-4.39-2.22-5.03-4.84-.61-2.49.42-5.24,2.45-6.52,2.44-1.54,4.94-1.61,7.43-.2.09.05.19.15.3.24.2.19.4.38.61.35.14-.02.26-.14.38-.35.09-.16.11-.31.07-.44-.09-.28-.44-.45-.72-.59-.07-.04-.14-.07-.2-.1-1.23-.68-2.49-1.05-3.75-1.1-1.27-.05-2.55.23-3.81.82-3.32,1.58-4.85,5.37-3.63,9.01.98,2.93,3.98,4.87,7.23,4.87.54,0,1.08-.05,1.63-.16,2.9-.59,3.48-1.31,3.47-4.29,0-.2,0-.4,0-.6,0-.47,0-.96,0-1.44,0-.22-.03-.47-.18-.6Z"/>
    <path class="cls-2" d="M148.31,54.98c-.09.06-.19.12-.28.18-.23.15-.46.31-.71.42-2.63,1.18-4.98.98-7-.6-1.98-1.56-2.74-3.76-2.19-6.37.42-1.97,1.69-3.56,3.48-4.35,2.01-.88,4.35-.68,6.42.55.07.04.14.09.21.15.24.19.52.4.81.06.13-.15.18-.29.16-.42-.03-.24-.28-.4-.5-.55-.03-.02-.07-.05-.1-.07-1.11-.79-2.46-1.21-4.12-1.28h0c-1.6.03-2.97.36-4.08.98-1.21.67-2.15,1.71-2.8,3.08-1.3,2.76-1.04,5.42.74,7.71,1.48,1.9,3.4,2.85,5.75,2.85.66,0,1.36-.08,2.09-.23.89-.19,1.92-.49,2.74-1.29.22-.21.41-.47.17-.78-.25-.32-.55-.19-.79-.04Z"/>
    <path class="cls-2" d="M108.11,55.86c-1.73-3.82-3.46-7.58-5.52-12.03-.03-.07-.06-.15-.09-.22-.17-.42-.35-.85-.96-.83-.59.02-.75.44-.92.85-.03.08-.07.17-.1.25-1.48,3.2-2.97,6.45-4.42,9.6-.35.77-.7,1.53-1.05,2.3-.03.06-.05.11-.08.17-.08.16-.16.33-.21.5,0,.03-.02.05-.03.08-.08.25-.17.53.2.67.31.11.59,0,.75-.3.16-.3.33-.63.51-1.04.52-1.15,1.05-2.31,1.57-3.46,1-2.21,2.04-4.49,3.06-6.74.04-.09.07-.18.11-.27.14-.36.28-.72.74-.96.07.15.15.3.22.44.16.32.32.64.47.97.57,1.24,1.14,2.49,1.7,3.74,1,2.2,2.04,4.48,3.07,6.72.03.06.05.13.08.19.12.3.27.64.53.74.05.02.1.03.15.03.1,0,.21-.03.33-.09.15-.08.24-.17.27-.29.06-.22-.1-.49-.24-.72-.06-.1-.11-.19-.15-.27Z"/>
    <path class="cls-2" d="M131.5,56.03c.02-1.48.02-2.99.01-4.45,0-.51,0-1.02,0-1.52,0-.53,0-1.05,0-1.58,0-1.49,0-3.02,0-4.53,0-.06,0-.13,0-.2.02-.33.04-.74-.39-.79-.18-.02-.32.02-.42.11-.19.17-.22.51-.22.84-.01,3.66-.01,7.55,0,12.23,0,.39.06.92.54.92h0c.18,0,.31-.04.39-.14.14-.16.12-.42.1-.66,0-.08-.01-.16-.01-.23Z"/>
  </g>
  <g>
    <path class="cls-1" d="M188.35,43.05c-.33-.1-.65.06-.81.41-.17.36-.34.76-.48,1.16-.41,1.17-.81,2.35-1.21,3.52l-.03.09c-.55,1.59-1.16,3.4-1.76,5.12-.03.08-.05.18-.08.27-.1.4-.17.54-.38.54-.2,0-.26-.13-.36-.53-.02-.08-.05-.18-.07-.26-.53-1.51-1.06-3.07-1.54-4.44-.51-1.49-1.04-3.03-1.57-4.54-.03-.08-.06-.18-.08-.28-.12-.45-.29-1.06-1.03-1.08-.01,0-.02,0-.03,0-.74,0-.92.64-1.05,1.06-.03.09-.05.18-.08.26-.61,1.73-1.25,3.54-1.8,5.14l-.04.12c-.45,1.28-.89,2.56-1.34,3.84-.03.1-.06.21-.09.31-.09.37-.16.54-.31.55-.23.01-.29-.12-.38-.57-.02-.11-.05-.23-.08-.33-.62-1.8-1.24-3.63-1.84-5.4-.41-1.2-.87-2.56-1.31-3.87-.02-.06-.04-.12-.06-.19-.11-.38-.33-1.09-1.01-.88-.25.07-.41.2-.5.38-.14.31,0,.65.13.95.03.08.07.16.09.23,1.11,3.34,2.31,6.87,3.76,11.1.02.06.04.12.06.18h0c.13.44.31,1.02,1.01,1.07.03,0,.06,0,.09,0,.73,0,.91-.62,1.03-1.03.02-.08.05-.17.08-.25.51-1.44,1.04-2.94,1.51-4.27.54-1.54,1.1-3.13,1.66-4.7.04-.1.06-.21.09-.32.11-.45.18-.6.41-.58.22.01.29.21.39.62.03.11.05.23.09.33.54,1.53,1.08,3.09,1.6,4.6l.03.08c.47,1.37.96,2.79,1.45,4.18.03.08.05.16.08.25.12.43.31,1.07,1.08,1.07.77,0,.95-.65,1.07-1.08.02-.09.05-.17.08-.25.98-2.85,1.96-5.76,2.91-8.57l.86-2.53c.05-.16.1-.31.15-.45l.05-.15v-.04c.03-.23.07-.72-.4-.86Z"/>
    <path class="cls-1" d="M198.97,42.89h-.03c-4.2,0-7.26,2.96-7.28,7.04-.02,4.12,3,7.14,7.16,7.19h.09c1.99,0,3.83-.69,5.16-1.95,1.36-1.28,2.11-3.06,2.13-5.02.02-2.02-.69-3.85-1.99-5.17-1.32-1.34-3.18-2.08-5.25-2.08ZM203.06,54.17c-1.06,1.05-2.53,1.62-4.13,1.62h-.04c-3.34-.02-5.75-2.47-5.75-5.82,0-1.64.55-3.05,1.59-4.08,1.04-1.03,2.52-1.6,4.19-1.6h.05c3.41.02,5.78,2.39,5.76,5.76,0,1.6-.6,3.06-1.66,4.11Z"/>
    <path class="cls-1" d="M234.13,43.13c-1.1-.24-2.22-.24-3.31-.23-.39,0-.74,0-1.1,0-.51,0-1.04-.01-1.57.02-.07,0-.16,0-.24,0-.3,0-.65-.02-.87.2-.12.12-.19.29-.19.5,0,.21.06.39.19.51.23.23.59.22.91.21.07,0,.14,0,.2,0,.61.02,1.23.02,1.83.02h.01c1.02,0,2.08,0,3.11.1,3.06.29,4.97,2.4,4.99,5.5.01,3.1-1.87,5.23-4.92,5.56-.9.1-1.83.09-2.73.09h-.02c-.44,0-.83,0-1.23,0-.41.01-.7-.08-.89-.27-.2-.2-.29-.52-.29-.97.01-.99,0-2.08-.04-3.32,0-.26-.02-.62-.26-.83-.13-.12-.31-.17-.53-.15-.3.02-.65.21-.66.96-.01,1.4-.02,3.05,0,4.69,0,.83.51,1.33,1.34,1.34.49,0,1,.02,1.49.03.53.01,1.08.03,1.63.03,1.26,0,2.23-.08,3.13-.27,1.63-.34,3.01-1.17,4-2.4.98-1.23,1.5-2.76,1.5-4.44,0-3.38-2.2-6.14-5.47-6.87Z"/>
    <path class="cls-1" d="M219.61,51.76c1.71-1.04,2.38-2.78,1.94-5.04-.36-1.81-1.58-2.99-3.62-3.5-1.01-.25-2.03-.24-3.03-.24h-.32c-.2,0-.4,0-.61,0h-.04c-.48,0-1.03,0-1.57,0-.06,0-.13,0-.2,0-.35,0-1-.02-1.04.62-.02.24.04.43.17.57.22.24.57.23.88.22h.01c.06,0,.12,0,.18,0,.58.02,1.16.02,1.73.02h.02c.92,0,1.87,0,2.79.09,2.13.18,3.28,1.42,3.23,3.47-.05,1.91-1.26,3.09-3.34,3.24-.54.04-1.09.04-1.62.03h-.02c-.23,0-.46,0-.69,0-.4,0-.76,0-1.07,0-1.21-.01-1.82-.01-2.19.36-.41.41-.41,1.18-.39,2.85,0,.17,0,.35,0,.54,0,.11,0,.23-.02.37-.03.45-.07.96.21,1.26.13.14.31.21.54.21.27,0,.47-.08.62-.24.27-.3.23-.78.2-1.21-.01-.16-.03-.31-.02-.44.05-1.14.07-1.71.36-1.98.28-.27.85-.28,1.97-.28h0c.12,0,.24,0,.36,0,.25,0,.51.01.76-.01,1.01-.11,1.75.27,2.32,1.18.46.74.99,1.43,1.51,2.11.15.19.3.39.44.58.23.31.47.46.72.46.17,0,.31-.07.39-.14.5-.37.17-.85,0-1.08l-.3-.44c-.48-.7-.97-1.43-1.51-2.1-.31-.4-.43-.65-.4-.86.04-.2.24-.42.62-.65Z"/>
    <path class="cls-1" d="M162.14,49.67c-.29-.08-.57-.16-.87-.25-.76-.21-1.54-.43-2.29-.7-1.22-.44-1.76-1.17-1.64-2.22.12-1.11.81-1.78,2.1-2.06,1.34-.29,2.67-.18,4.07.35.07.03.15.07.23.11.24.13.51.27.78.18.15-.05.26-.17.34-.35.09-.2.1-.39.03-.55-.13-.3-.46-.42-.75-.53-.07-.03-.14-.05-.2-.08-1.64-.74-3.32-.89-4.98-.45-1.93.51-3.09,1.84-3.12,3.54-.03,1.74.93,2.89,2.92,3.52.52.17,1.06.32,1.58.47.78.22,1.59.46,2.36.73,1.15.41,1.68,1.13,1.6,2.13-.09,1.09-.74,1.78-1.93,2.06-1.98.46-3.8.19-5.4-.82-.04-.02-.08-.05-.12-.09h0c-.2-.16-.62-.48-.99-.03-.14.17-.2.35-.17.52.05.3.32.49.55.64l.03.02c1.34.89,2.63,1.31,4.05,1.31.11,0,.23,0,.34,0,.02,0,.04,0,.07,0h.02c.12,0,.3,0,.48,0,2.6-.15,4.29-1.44,4.53-3.45.23-1.92-.95-3.23-3.61-4Z"/>
  </g>
</svg>