<?xml version="1.0" encoding="UTF-8" standalone="no"?>
<svg xmlns="http://www.w3.org/2000/svg" xmlns:xlink="http://www.w3.org/1999/xlink" width="256" height="256" version="1.0">
  <defs>
    <path id="c" fill="url(#a)" d="M126.62899 57.623206c.0762 2.889762 1.8952 2.026788 2.91407 2.402779 3.8332.434649 5.71331-.595501 8.31492-1.08454 5.03227-1.442431 6.97283-2.498404 9.39946-3.615135 2.77164-1.648935 5.54327-2.837865 8.31491-5.4227 2.61425-1.900196 4.27306-3.522401 6.50732-6.145727 2.95627-3.037531 3.94612-4.472477 6.1458-7.591782 2.44667-3.566995 3.61518-5.940873 5.42277-9.760861 1.21213-3.069324 2.6743-6.013639 3.25366-9.39935.63991-3.054169 1.45078-6.022868 1.44607-9.3993468.20329-1.649347-.26124-2.6308683-.72304-3.615134-1.82628-1.0776516-2.76716-1.0422414-4.89333-.8909374-2.48906.0106455-5.67548.3934648-9.20586 1.9754776-3.88816 1.7862591-7.60756 3.685013-10.48402 6.1457276-3.07298 1.928072-5.15629 3.856143-7.23035 5.784213-2.51863 2.301578-4.67999 4.960431-6.86884 7.591782-2.49088 2.972549-4.43468 5.552703-5.57251 8.186995-1.53575 2.934711-2.6025 5.869422-3.82696 8.804135-1.29997 3.131921-2.29561 6.416006-2.91407 9.888675-.35654 2.16742-.26403 3.673904 0 6.145729z"/>
  </defs>
  <defs>
    <linearGradient id="b">
      <stop offset="0" stop-color="#e1e0df" stop-opacity=".49803922"/>
      <stop offset="0" stop-color="#697c8b"/>
      <stop offset="0" stop-color="#a5aeb5"/>
      <stop offset="0" stop-color="#e1e0df"/>
      <stop offset="1" stop-color="#e1e0df" stop-opacity="0"/>
    </linearGradient>
    <linearGradient xlink:href="#b" id="d" x1="188.89853" x2="140.41121" y1="247.91878" y2="173.1675" gradientTransform="translate(-6.0609153 1.0101525)" gradientUnits="userSpaceOnUse" spreadMethod="pad"/>
    <linearGradient xlink:href="#b" id="a" x1="147.48227" x2="139.40105" y1="55.989796" y2="43.867966" gradientTransform="translate(-6.0609153 1.0101525)" gradientUnits="userSpaceOnUse" spreadMethod="pad"/>
  </defs>
  <g stroke="#939494">
    <path fill="#f3f3f3" d="M226.79135 189.08626c1.01223-3.91699-.00305-5.29964-1.7017-5.82807-8.94292-5.51773-14.90555-11.71504-21.22366-20.88006-5.08758-10.64448-7.80817-13.96232-7.44213-28.96493-.34184-7.23027.55447-14.46053 3.61518-21.6908 3.60508-7.41859 6.90192-13.662416 13.69382-17.987951l6.50732-5.784214c1.57219-1.185842 1.57034-3.54214.76689-5.148905-5.67233-5.862803-10.25672-11.881022-20.45677-17.097014-4.13233-2.392532-10.36931-4.243995-18.58715-4.59379-5.80155.00264-11.43006-.167749-18.54329 1.146565-5.69908.927917-11.65378 2.861867-17.35286 5.784215l-8.20902 3.914622c-5.20654 1.274946-9.93311.630018-14.46071-.810746l-15.18375-6.419522c-5.28437-1.945968-11.470155-2.990514-18.798921-2.892108-7.23471-.021771-14.404399.28156-20.968031 3.615135-5.203259 2.50909-9.936789 5.487901-14.460712 8.676321-5.361743 5.001705-10.450797 10.276098-14.460711 16.629617-3.0887 3.989503-5.27651 10.426015-7.69776 16.417845-2.210856 5.99728-3.222851 10.43641-4.126441 15.86273-1.582843 10.49205-1.393916 16.86307-1.022527 24.83854.780816 13.65361 2.734479 18.62094 4.170301 26.75199 1.728642 6.90614 4.112215 12.50244 6.50732 18.07567 2.433431 6.73659 6.381652 12.7158 10.122498 18.79869 3.291688 6.31908 8.435737 13.2556 13.737676 20.24475 4.581928 5.06255 6.705904 8.89612 15.439378 15.13972 5.857043 3.65864 6.722243 4.37054 9.866867 5.82807 2.894698.72047 5.888162 1.34216 10.122498.72302 2.75253-.58342 5.334895-.99667 9.399455-2.89211 2.89214-1.20505 5.78429-2.41008 8.67643-3.61513 3.2336-1.44606 6.40298-2.89211 12.2916-4.33816 3.8562-.50608 7.71238-.89189 11.56858-.72303 2.42413-.03979 6.45926.887 12.29159 2.8921 3.62614 1.21235 5.61345 1.33216 13.01465 5.06119 3.14023 1.02016 5.14262 2.79889 10.1225 2.59263 4.78522-.65822 9.30541-2.34835 12.759-4.33816 3.81487-2.79226 8.3119-4.90236 10.8894-8.93195 3.11283-2.90263 4.94183-5.16334 6.71909-7.39819l8.67642-13.01447c2.78102-3.31151 5.29814-7.1508 7.39827-11.82406 2.53419-5.51897 4.47756-11.62876 6.33941-17.82005z"/>
    <path fill="#f9f9f9" d="M126.62899 57.623206c.0762 2.889762 1.8952 2.026788 2.91407 2.402779 3.8332.434649 5.71331-.595501 8.31492-1.08454 5.03227-1.442431 6.97283-2.498404 9.39946-3.615135 2.77164-1.648935 5.54327-2.837865 8.31491-5.4227 2.61425-1.900196 4.27306-3.522401 6.50732-6.145727 2.95627-3.037531 3.94612-4.472477 6.1458-7.591782 2.44667-3.566995 3.61518-5.940873 5.42277-9.760861 1.21213-3.069324 2.6743-6.013639 3.25366-9.39935.63991-3.054169 1.45078-6.022868 1.44607-9.3993468.20329-1.649347-.26124-2.6308683-.72304-3.615134-1.82628-1.0776516-2.76716-1.0422414-4.89333-.8909374-2.48906.0106455-5.67548.3934648-9.20586 1.9754776-3.88816 1.7862591-7.60756 3.685013-10.48402 6.1457276-3.07298 1.928072-5.15629 3.856143-7.23035 5.784213-2.51863 2.301578-4.67999 4.960431-6.86884 7.591782-2.49088 2.972549-4.43468 5.552703-5.57251 8.186995-1.53575 2.934711-2.6025 5.869422-3.82696 8.804135-1.29997 3.131921-2.29561 6.416006-2.91407 9.888675-.35654 2.16742-.26403 3.673904 0 6.145729z"/>
    <use xlink:href="#c"/>
    <path fill="url(#d)" d="M226.79135 189.08626c1.01223-3.91699-.00305-5.29964-1.7017-5.82807-8.94292-5.51773-14.90555-11.71504-21.22366-20.88006-5.08758-10.64448-7.80817-13.96232-7.44213-28.96493-.34184-7.23027.55447-14.46053 3.61518-21.6908 3.60508-7.41859 6.90192-13.662416 13.69382-17.987951l6.50732-5.784214c1.57219-1.185842 1.57034-3.54214.76689-5.148905-5.67233-5.862803-10.25672-11.881022-20.45677-17.097014-4.13233-2.392532-10.36931-4.243995-18.58715-4.59379-5.80155.00264-11.43006-.167749-18.54329 1.146565-5.69908.927917-11.65378 2.861867-17.35286 5.784215l-8.20902 3.914622c-5.20654 1.274946-9.93311.630018-14.46071-.810746l-15.18375-6.419522c-5.28437-1.945968-11.470155-2.990514-18.798921-2.892108-7.23471-.021771-14.404399.28156-20.968031 3.615135-5.203259 2.50909-9.936789 5.487901-14.460712 8.676321-5.361743 5.001705-10.450797 10.276098-14.460711 16.629617-3.0887 3.989503-5.27651 10.426015-7.69776 16.417845-2.210856 5.99728-3.222851 10.43641-4.126441 15.86273-1.582843 10.49205-1.393916 16.86307-1.022527 24.83854.780816 13.65361 2.734479 18.62094 4.170301 26.75199 1.728642 6.90614 4.112215 12.50244 6.50732 18.07567 2.433431 6.73659 6.381652 12.7158 10.122498 18.79869 3.291688 6.31908 8.435737 13.2556 13.737676 20.24475 4.581928 5.06255 6.705904 8.89612 15.439378 15.13972 5.857043 3.65864 6.722243 4.37054 9.866867 5.82807 2.894698.72047 5.888162 1.34216 10.122498.72302 2.75253-.58342 5.334895-.99667 9.399455-2.89211 2.89214-1.20505 5.78429-2.41008 8.67643-3.61513 3.2336-1.44606 6.40298-2.89211 12.2916-4.33816 3.8562-.50608 7.71238-.89189 11.56858-.72303 2.42413-.03979 6.45926.887 12.29159 2.8921 3.62614 1.21235 5.61345 1.33216 13.01465 5.06119 3.14023 1.02016 5.14262 2.79889 10.1225 2.59263 4.78522-.65822 9.30541-2.34835 12.759-4.33816 3.81487-2.79226 8.3119-4.90236 10.8894-8.93195 3.11283-2.90263 4.94183-5.16334 6.71909-7.39819l8.67642-13.01447c2.78102-3.31151 5.29814-7.1508 7.39827-11.82406 2.53419-5.51897 4.47756-11.62876 6.33941-17.82005z"/>
    <use xlink:href="#c"/>
  </g>
</svg>
